M48
; DRILL file {KiCad (6.0.7-1)-1} date Samstag, 20. August 2022 um 21:08:40
; FORMAT={-:-/ absolute / metric / decimal}
; #@! TF.CreationDate,2022-08-20T21:08:40+02:00
; #@! TF.GenerationSoftware,Kicad,Pcbnew,(6.0.7-1)-1
; #@! TF.FileFunction,Plated,1,2,PTH
FMAT,2
METRIC
; #@! TA.AperFunction,Plated,PTH,ComponentDrill
T1C0.750
; #@! TA.AperFunction,Plated,PTH,ComponentDrill
T2C0.800
; #@! TA.AperFunction,Plated,PTH,ComponentDrill
T3C1.000
; #@! TA.AperFunction,Plated,PTH,ComponentDrill
T4C1.100
; #@! TA.AperFunction,Plated,PTH,ComponentDrill
T5C1.300
%
G90
G05
T1
X149.06Y-65.0
X150.33Y-65.0
X151.6Y-65.0
T2
X124.0Y-58.12
X124.0Y-68.28
X126.55Y-55.58
X126.55Y-70.82
X129.09Y-55.58
X129.09Y-70.82
X129.52Y-59.0
X129.52Y-62.6
X131.63Y-55.58
X131.63Y-70.82
X134.17Y-55.58
X134.17Y-70.82
X136.71Y-55.58
X136.71Y-70.82
X139.25Y-55.58
X139.25Y-70.82
X139.68Y-59.0
X139.68Y-62.6
X141.79Y-55.58
X141.79Y-70.82
X144.33Y-55.58
X144.33Y-70.82
X146.87Y-55.58
X146.87Y-70.82
X149.41Y-55.58
X149.41Y-70.82
X151.95Y-55.58
X151.95Y-70.82
X154.49Y-55.58
X154.49Y-70.82
X157.03Y-55.58
X157.03Y-70.82
X159.57Y-55.58
X159.57Y-70.82
X162.11Y-55.58
X162.11Y-70.82
T3
X127.525Y-79.625
X130.065Y-79.625
X132.605Y-79.625
X135.145Y-79.625
X137.685Y-79.625
X148.0Y-79.825
X150.54Y-79.825
X153.08Y-79.825
X155.62Y-79.825
T4
X127.32Y-66.8
X137.48Y-66.8
X162.0Y-60.66
X162.0Y-63.2
X162.0Y-65.74
T5
X102.895Y-64.1
X102.895Y-69.1
X112.2Y-79.0
X117.2Y-79.0
T0
M30
