%TF.GenerationSoftware,KiCad,Pcbnew,(6.0.7-1)-1*%
%TF.CreationDate,2022-08-20T21:08:27+02:00*%
%TF.ProjectId,Open-Ventilation,4f70656e-2d56-4656-9e74-696c6174696f,rev?*%
%TF.SameCoordinates,Original*%
%TF.FileFunction,Soldermask,Bot*%
%TF.FilePolarity,Negative*%
%FSLAX46Y46*%
G04 Gerber Fmt 4.6, Leading zero omitted, Abs format (unit mm)*
G04 Created by KiCad (PCBNEW (6.0.7-1)-1) date 2022-08-20 21:08:27*
%MOMM*%
%LPD*%
G01*
G04 APERTURE LIST*
%TA.AperFunction,Profile*%
%ADD10C,0.100000*%
%TD*%
%ADD11C,2.700000*%
%ADD12R,1.600000X1.600000*%
%ADD13O,1.600000X1.600000*%
%ADD14C,1.600000*%
%ADD15O,3.500000X3.500000*%
%ADD16R,2.000000X1.905000*%
%ADD17O,2.000000X1.905000*%
%ADD18R,2.200000X2.200000*%
%ADD19O,2.200000X2.200000*%
%ADD20R,2.600000X2.600000*%
%ADD21C,2.600000*%
%ADD22R,1.700000X1.700000*%
%ADD23O,1.700000X1.700000*%
%ADD24R,1.050000X1.500000*%
%ADD25O,1.050000X1.500000*%
G04 APERTURE END LIST*
D10*
X100250000Y-52250000D02*
X170250000Y-52250000D01*
X170250000Y-52250000D02*
X170250000Y-82250000D01*
X170250000Y-82250000D02*
X100250000Y-82250000D01*
X100250000Y-82250000D02*
X100250000Y-52250000D01*
D11*
%TO.C,H3*%
X167200000Y-55400000D03*
%TD*%
D12*
%TO.C,U2*%
X126550000Y-70820000D03*
D13*
X129090000Y-70820000D03*
X131630000Y-70820000D03*
X134170000Y-70820000D03*
X136710000Y-70820000D03*
X139250000Y-70820000D03*
X141790000Y-70820000D03*
X144330000Y-70820000D03*
X146870000Y-70820000D03*
X149410000Y-70820000D03*
X151950000Y-70820000D03*
X154490000Y-70820000D03*
X157030000Y-70820000D03*
X159570000Y-70820000D03*
X162110000Y-70820000D03*
X162110000Y-55580000D03*
X159570000Y-55580000D03*
X157030000Y-55580000D03*
X154490000Y-55580000D03*
X151950000Y-55580000D03*
X149410000Y-55580000D03*
X146870000Y-55580000D03*
X144330000Y-55580000D03*
X141790000Y-55580000D03*
X139250000Y-55580000D03*
X136710000Y-55580000D03*
X134170000Y-55580000D03*
X131630000Y-55580000D03*
X129090000Y-55580000D03*
X126550000Y-55580000D03*
%TD*%
D11*
%TO.C,H2*%
X167000000Y-79000000D03*
%TD*%
%TO.C,H1*%
X103500000Y-55500000D03*
%TD*%
D14*
%TO.C,R1*%
X124000000Y-58120000D03*
D13*
X124000000Y-68280000D03*
%TD*%
D15*
%TO.C,Q1*%
X145340000Y-63200000D03*
D16*
X162000000Y-65740000D03*
D17*
X162000000Y-63200000D03*
X162000000Y-60660000D03*
%TD*%
D14*
%TO.C,R2*%
X129520000Y-62600000D03*
D13*
X139680000Y-62600000D03*
%TD*%
D11*
%TO.C,H4*%
X103500000Y-79000000D03*
%TD*%
D18*
%TO.C,D1*%
X137480000Y-66800000D03*
D19*
X127320000Y-66800000D03*
%TD*%
D14*
%TO.C,R3*%
X129520000Y-59000000D03*
D13*
X139680000Y-59000000D03*
%TD*%
D20*
%TO.C,J3*%
X102895000Y-69100000D03*
D21*
X102895000Y-64100000D03*
%TD*%
D22*
%TO.C,J2*%
X127525000Y-79625000D03*
D23*
X130065000Y-79625000D03*
X132605000Y-79625000D03*
X135145000Y-79625000D03*
X137685000Y-79625000D03*
%TD*%
D20*
%TO.C,J4*%
X117200000Y-79000000D03*
D21*
X112200000Y-79000000D03*
%TD*%
D24*
%TO.C,U1*%
X151600000Y-65000000D03*
D25*
X150330000Y-65000000D03*
X149060000Y-65000000D03*
%TD*%
D22*
%TO.C,J1*%
X148000000Y-79825000D03*
D23*
X150540000Y-79825000D03*
X153080000Y-79825000D03*
X155620000Y-79825000D03*
%TD*%
M02*
