%TF.GenerationSoftware,KiCad,Pcbnew,(6.0.7-1)-1*%
%TF.CreationDate,2022-08-20T21:08:27+02:00*%
%TF.ProjectId,Open-Ventilation,4f70656e-2d56-4656-9e74-696c6174696f,rev?*%
%TF.SameCoordinates,Original*%
%TF.FileFunction,Copper,L2,Bot*%
%TF.FilePolarity,Positive*%
%FSLAX46Y46*%
G04 Gerber Fmt 4.6, Leading zero omitted, Abs format (unit mm)*
G04 Created by KiCad (PCBNEW (6.0.7-1)-1) date 2022-08-20 21:08:27*
%MOMM*%
%LPD*%
G01*
G04 APERTURE LIST*
%TA.AperFunction,Profile*%
%ADD10C,0.100000*%
%TD*%
%TA.AperFunction,ComponentPad*%
%ADD11R,1.600000X1.600000*%
%TD*%
%TA.AperFunction,ComponentPad*%
%ADD12O,1.600000X1.600000*%
%TD*%
%TA.AperFunction,ComponentPad*%
%ADD13C,1.600000*%
%TD*%
%TA.AperFunction,ComponentPad*%
%ADD14R,2.000000X1.905000*%
%TD*%
%TA.AperFunction,ComponentPad*%
%ADD15O,2.000000X1.905000*%
%TD*%
%TA.AperFunction,ComponentPad*%
%ADD16R,2.200000X2.200000*%
%TD*%
%TA.AperFunction,ComponentPad*%
%ADD17O,2.200000X2.200000*%
%TD*%
%TA.AperFunction,ComponentPad*%
%ADD18R,2.600000X2.600000*%
%TD*%
%TA.AperFunction,ComponentPad*%
%ADD19C,2.600000*%
%TD*%
%TA.AperFunction,ComponentPad*%
%ADD20R,1.700000X1.700000*%
%TD*%
%TA.AperFunction,ComponentPad*%
%ADD21O,1.700000X1.700000*%
%TD*%
%TA.AperFunction,ComponentPad*%
%ADD22R,1.050000X1.500000*%
%TD*%
%TA.AperFunction,ComponentPad*%
%ADD23O,1.050000X1.500000*%
%TD*%
%TA.AperFunction,Conductor*%
%ADD24C,0.250000*%
%TD*%
%TA.AperFunction,Conductor*%
%ADD25C,0.840000*%
%TD*%
G04 APERTURE END LIST*
D10*
X100250000Y-52250000D02*
X170250000Y-52250000D01*
X170250000Y-52250000D02*
X170250000Y-82250000D01*
X170250000Y-82250000D02*
X100250000Y-82250000D01*
X100250000Y-82250000D02*
X100250000Y-52250000D01*
D11*
%TO.P,U2,1,D1/TX*%
%TO.N,unconnected-(U2-Pad1)*%
X126550000Y-70820000D03*
D12*
%TO.P,U2,2,D0/RX*%
%TO.N,unconnected-(U2-Pad2)*%
X129090000Y-70820000D03*
%TO.P,U2,3,~{RESET}*%
%TO.N,unconnected-(U2-Pad3)*%
X131630000Y-70820000D03*
%TO.P,U2,4,GND*%
%TO.N,GND*%
X134170000Y-70820000D03*
%TO.P,U2,5,D2*%
%TO.N,DT*%
X136710000Y-70820000D03*
%TO.P,U2,6,~D3*%
%TO.N,SW*%
X139250000Y-70820000D03*
%TO.P,U2,7,D4*%
%TO.N,CLK*%
X141790000Y-70820000D03*
%TO.P,U2,8,~D5*%
%TO.N,unconnected-(U2-Pad8)*%
X144330000Y-70820000D03*
%TO.P,U2,9,~D6*%
%TO.N,unconnected-(U2-Pad9)*%
X146870000Y-70820000D03*
%TO.P,U2,10,D7*%
%TO.N,unconnected-(U2-Pad10)*%
X149410000Y-70820000D03*
%TO.P,U2,11,D8*%
%TO.N,unconnected-(U2-Pad11)*%
X151950000Y-70820000D03*
%TO.P,U2,12,~D9*%
%TO.N,Data*%
X154490000Y-70820000D03*
%TO.P,U2,13,~D10*%
%TO.N,Mosfet*%
X157030000Y-70820000D03*
%TO.P,U2,14,~D11*%
%TO.N,unconnected-(U2-Pad14)*%
X159570000Y-70820000D03*
%TO.P,U2,15,D12*%
%TO.N,unconnected-(U2-Pad15)*%
X162110000Y-70820000D03*
%TO.P,U2,16,D13*%
%TO.N,unconnected-(U2-Pad16)*%
X162110000Y-55580000D03*
%TO.P,U2,17,3V3*%
%TO.N,unconnected-(U2-Pad17)*%
X159570000Y-55580000D03*
%TO.P,U2,18,AREF*%
%TO.N,unconnected-(U2-Pad18)*%
X157030000Y-55580000D03*
%TO.P,U2,19,A0/D14*%
%TO.N,unconnected-(U2-Pad19)*%
X154490000Y-55580000D03*
%TO.P,U2,20,A1/D15*%
%TO.N,unconnected-(U2-Pad20)*%
X151950000Y-55580000D03*
%TO.P,U2,21,A2/D16*%
%TO.N,unconnected-(U2-Pad21)*%
X149410000Y-55580000D03*
%TO.P,U2,22,A3/D17*%
%TO.N,unconnected-(U2-Pad22)*%
X146870000Y-55580000D03*
%TO.P,U2,23,A4/D18*%
%TO.N,SDA*%
X144330000Y-55580000D03*
%TO.P,U2,24,A5/D19*%
%TO.N,SCL*%
X141790000Y-55580000D03*
%TO.P,U2,25,A6/D20*%
%TO.N,unconnected-(U2-Pad25)*%
X139250000Y-55580000D03*
%TO.P,U2,26,A7/D21*%
%TO.N,unconnected-(U2-Pad26)*%
X136710000Y-55580000D03*
%TO.P,U2,27,+5V*%
%TO.N,+5V*%
X134170000Y-55580000D03*
%TO.P,U2,28,~{RESET}*%
%TO.N,unconnected-(U2-Pad28)*%
X131630000Y-55580000D03*
%TO.P,U2,29,GND*%
%TO.N,GND*%
X129090000Y-55580000D03*
%TO.P,U2,30,VIN*%
%TO.N,+12V*%
X126550000Y-55580000D03*
%TD*%
D13*
%TO.P,R1,1*%
%TO.N,+5V*%
X124000000Y-58120000D03*
D12*
%TO.P,R1,2*%
%TO.N,Data*%
X124000000Y-68280000D03*
%TD*%
D14*
%TO.P,Q1,1,G*%
%TO.N,Net-(R2-Pad2)*%
X162000000Y-65740000D03*
D15*
%TO.P,Q1,2,D*%
%TO.N,FAN-GND*%
X162000000Y-63200000D03*
%TO.P,Q1,3,S*%
%TO.N,GND*%
X162000000Y-60660000D03*
%TD*%
D13*
%TO.P,R2,1*%
%TO.N,Mosfet*%
X129520000Y-62600000D03*
D12*
%TO.P,R2,2*%
%TO.N,Net-(R2-Pad2)*%
X139680000Y-62600000D03*
%TD*%
D16*
%TO.P,D1,1,K*%
%TO.N,+12V*%
X137480000Y-66800000D03*
D17*
%TO.P,D1,2,A*%
%TO.N,FAN-GND*%
X127320000Y-66800000D03*
%TD*%
D13*
%TO.P,R3,1*%
%TO.N,GND*%
X129520000Y-59000000D03*
D12*
%TO.P,R3,2*%
%TO.N,Net-(R2-Pad2)*%
X139680000Y-59000000D03*
%TD*%
D18*
%TO.P,J3,1,Pin_1*%
%TO.N,GND*%
X102895000Y-69100000D03*
D19*
%TO.P,J3,2,Pin_2*%
%TO.N,+12V*%
X102895000Y-64100000D03*
%TD*%
D20*
%TO.P,J2,1,Pin_1*%
%TO.N,GND*%
X127525000Y-79625000D03*
D21*
%TO.P,J2,2,Pin_2*%
%TO.N,DT*%
X130065000Y-79625000D03*
%TO.P,J2,3,Pin_3*%
%TO.N,SW*%
X132605000Y-79625000D03*
%TO.P,J2,4,Pin_4*%
%TO.N,CLK*%
X135145000Y-79625000D03*
%TO.P,J2,5,Pin_5*%
%TO.N,+5V*%
X137685000Y-79625000D03*
%TD*%
D18*
%TO.P,J4,1,Pin_1*%
%TO.N,+12V*%
X117200000Y-79000000D03*
D19*
%TO.P,J4,2,Pin_2*%
%TO.N,FAN-GND*%
X112200000Y-79000000D03*
%TD*%
D22*
%TO.P,U1,1,GND*%
%TO.N,GND*%
X151600000Y-65000000D03*
D23*
%TO.P,U1,2,DQ*%
%TO.N,Data*%
X150330000Y-65000000D03*
%TO.P,U1,3,VDD*%
%TO.N,+5V*%
X149060000Y-65000000D03*
%TD*%
D20*
%TO.P,J1,1,Pin_1*%
%TO.N,GND*%
X148000000Y-79825000D03*
D21*
%TO.P,J1,2,Pin_2*%
%TO.N,SCL*%
X150540000Y-79825000D03*
%TO.P,J1,3,Pin_3*%
%TO.N,SDA*%
X153080000Y-79825000D03*
%TO.P,J1,4,Pin_4*%
%TO.N,+5V*%
X155620000Y-79825000D03*
%TD*%
D24*
%TO.N,SCL*%
X167000000Y-73000000D02*
X162400000Y-77600000D01*
X141790000Y-55580000D02*
X145010000Y-58800000D01*
X165000000Y-58800000D02*
X167000000Y-60800000D01*
X151740000Y-78060000D02*
X150540000Y-78060000D01*
X145010000Y-58800000D02*
X165000000Y-58800000D01*
X167000000Y-60800000D02*
X167000000Y-73000000D01*
X152200000Y-77600000D02*
X151740000Y-78060000D01*
X150540000Y-78060000D02*
X150540000Y-79825000D01*
X162400000Y-77600000D02*
X152200000Y-77600000D01*
%TO.N,SDA*%
X144330000Y-55580000D02*
X146150000Y-57400000D01*
X169000000Y-73800000D02*
X161200000Y-81600000D01*
X169000000Y-60000000D02*
X169000000Y-73800000D01*
X154855000Y-81600000D02*
X153080000Y-79825000D01*
X166400000Y-57400000D02*
X169000000Y-60000000D01*
X146150000Y-57400000D02*
X166400000Y-57400000D01*
X161200000Y-81600000D02*
X154855000Y-81600000D01*
%TO.N,DT*%
X130065000Y-79625000D02*
X136710000Y-72980000D01*
X136710000Y-72980000D02*
X136710000Y-70820000D01*
%TO.N,SW*%
X132605000Y-78195000D02*
X137200000Y-73600000D01*
X139250000Y-72550000D02*
X139250000Y-70820000D01*
X132605000Y-79625000D02*
X132605000Y-78195000D01*
X138200000Y-73600000D02*
X139250000Y-72550000D01*
X137200000Y-73600000D02*
X138200000Y-73600000D01*
%TO.N,CLK*%
X141790000Y-72980000D02*
X135145000Y-79625000D01*
X141790000Y-70820000D02*
X141790000Y-72980000D01*
D25*
%TO.N,+12V*%
X132200000Y-64600000D02*
X134400000Y-66800000D01*
X117820000Y-55580000D02*
X126550000Y-55580000D01*
X134400000Y-66800000D02*
X137480000Y-66800000D01*
X109300000Y-64100000D02*
X117820000Y-55580000D01*
X128000000Y-64600000D02*
X132200000Y-64600000D01*
X126550000Y-55580000D02*
X126550000Y-63150000D01*
X102895000Y-64100000D02*
X109300000Y-64100000D01*
X126550000Y-63150000D02*
X128000000Y-64600000D01*
D24*
%TO.N,Net-(R2-Pad2)*%
X154474999Y-61074999D02*
X159140000Y-65740000D01*
X139680000Y-59000000D02*
X139680000Y-60080000D01*
X159140000Y-65740000D02*
X162000000Y-65740000D01*
X140674999Y-61605001D02*
X140674999Y-61074999D01*
X139680000Y-62600000D02*
X140674999Y-61605001D01*
X139680000Y-60080000D02*
X140674999Y-61074999D01*
X140674999Y-61074999D02*
X141205001Y-61074999D01*
X141205001Y-61074999D02*
X154474999Y-61074999D01*
%TO.N,Data*%
X150330000Y-66660000D02*
X154490000Y-70820000D01*
X150330000Y-65000000D02*
X150330000Y-66660000D01*
%TO.N,Mosfet*%
X145400000Y-69200000D02*
X145600000Y-69400000D01*
X156200000Y-72400000D02*
X156200000Y-71650000D01*
X137130000Y-62600000D02*
X143730000Y-69200000D01*
X155200000Y-73400000D02*
X156200000Y-72400000D01*
X145600000Y-69400000D02*
X145600000Y-72400000D01*
X146600000Y-73400000D02*
X155200000Y-73400000D01*
X145600000Y-72400000D02*
X146600000Y-73400000D01*
X129520000Y-62600000D02*
X137130000Y-62600000D01*
X143730000Y-69200000D02*
X145400000Y-69200000D01*
X156200000Y-71650000D02*
X157030000Y-70820000D01*
D25*
%TO.N,FAN-GND*%
X112200000Y-79000000D02*
X112200000Y-71200000D01*
X112200000Y-71200000D02*
X117699999Y-65700001D01*
X126220001Y-65700001D02*
X127320000Y-66800000D01*
X117699999Y-65700001D02*
X126220001Y-65700001D01*
%TD*%
%TA.AperFunction,Conductor*%
%TO.N,GND*%
G36*
X169683621Y-52778502D02*
G01*
X169730114Y-52832158D01*
X169741500Y-52884500D01*
X169741500Y-59548732D01*
X169721498Y-59616853D01*
X169667842Y-59663346D01*
X169597568Y-59673450D01*
X169532988Y-59643956D01*
X169514045Y-59621257D01*
X169513439Y-59621727D01*
X169508576Y-59615458D01*
X169504542Y-59608637D01*
X169490218Y-59594313D01*
X169477376Y-59579278D01*
X169476035Y-59577432D01*
X169465472Y-59562893D01*
X169431406Y-59534711D01*
X169422627Y-59526722D01*
X167356950Y-57461045D01*
X167322924Y-57398733D01*
X167327989Y-57327918D01*
X167370536Y-57271082D01*
X167436927Y-57246280D01*
X167469004Y-57243953D01*
X167473459Y-57242969D01*
X167473462Y-57242969D01*
X167727912Y-57186791D01*
X167727916Y-57186790D01*
X167732372Y-57185806D01*
X167912138Y-57117699D01*
X167980318Y-57091868D01*
X167980321Y-57091867D01*
X167984588Y-57090250D01*
X168220368Y-56959286D01*
X168394359Y-56826500D01*
X168431141Y-56798429D01*
X168431142Y-56798428D01*
X168434773Y-56795657D01*
X168460598Y-56769240D01*
X168599160Y-56627498D01*
X168623312Y-56602792D01*
X168782034Y-56384730D01*
X168857650Y-56241007D01*
X168905490Y-56150079D01*
X168905493Y-56150073D01*
X168907615Y-56146039D01*
X168911774Y-56134264D01*
X168995902Y-55896033D01*
X168995902Y-55896032D01*
X168997425Y-55891720D01*
X169049581Y-55627100D01*
X169051926Y-55580000D01*
X169062764Y-55362292D01*
X169062764Y-55362286D01*
X169062991Y-55357723D01*
X169037375Y-55089231D01*
X169024300Y-55035795D01*
X168974355Y-54831688D01*
X168973269Y-54827250D01*
X168872015Y-54577267D01*
X168775005Y-54411586D01*
X168738045Y-54348463D01*
X168738044Y-54348462D01*
X168735735Y-54344518D01*
X168615677Y-54194393D01*
X168570136Y-54137447D01*
X168570135Y-54137445D01*
X168567284Y-54133881D01*
X168370191Y-53949766D01*
X168148584Y-53796032D01*
X168144501Y-53794001D01*
X168144498Y-53793999D01*
X168028987Y-53736534D01*
X167907106Y-53675899D01*
X167902772Y-53674478D01*
X167902769Y-53674477D01*
X167655147Y-53593302D01*
X167655141Y-53593301D01*
X167650814Y-53591882D01*
X167646322Y-53591102D01*
X167388860Y-53546399D01*
X167388852Y-53546398D01*
X167385079Y-53545743D01*
X167373817Y-53545182D01*
X167301422Y-53541578D01*
X167301414Y-53541578D01*
X167299851Y-53541500D01*
X167131488Y-53541500D01*
X167129220Y-53541665D01*
X167129208Y-53541665D01*
X166998116Y-53551177D01*
X166930996Y-53556047D01*
X166926541Y-53557031D01*
X166926538Y-53557031D01*
X166672088Y-53613209D01*
X166672084Y-53613210D01*
X166667628Y-53614194D01*
X166584860Y-53645552D01*
X166419682Y-53708132D01*
X166419679Y-53708133D01*
X166415412Y-53709750D01*
X166179632Y-53840714D01*
X165965227Y-54004343D01*
X165776688Y-54197208D01*
X165617966Y-54415270D01*
X165585805Y-54476399D01*
X165494510Y-54649921D01*
X165494507Y-54649927D01*
X165492385Y-54653961D01*
X165490865Y-54658266D01*
X165490863Y-54658270D01*
X165422511Y-54851825D01*
X165402575Y-54908280D01*
X165381278Y-55016334D01*
X165357679Y-55136067D01*
X165350419Y-55172900D01*
X165350192Y-55177453D01*
X165350192Y-55177456D01*
X165340991Y-55362292D01*
X165337009Y-55442277D01*
X165362625Y-55710769D01*
X165363710Y-55715203D01*
X165363711Y-55715209D01*
X165408484Y-55898180D01*
X165426731Y-55972750D01*
X165527985Y-56222733D01*
X165664265Y-56455482D01*
X165667113Y-56459044D01*
X165667117Y-56459049D01*
X165749294Y-56561805D01*
X165776218Y-56627498D01*
X165763352Y-56697319D01*
X165714781Y-56749101D01*
X165650891Y-56766500D01*
X163078188Y-56766500D01*
X163010067Y-56746498D01*
X162963574Y-56692842D01*
X162953470Y-56622568D01*
X162982964Y-56557988D01*
X162989093Y-56551405D01*
X163116198Y-56424300D01*
X163247523Y-56236749D01*
X163249846Y-56231767D01*
X163249849Y-56231762D01*
X163341961Y-56034225D01*
X163341961Y-56034224D01*
X163344284Y-56029243D01*
X163354339Y-55991720D01*
X163402119Y-55813402D01*
X163402119Y-55813400D01*
X163403543Y-55808087D01*
X163423498Y-55580000D01*
X163403543Y-55351913D01*
X163383592Y-55277456D01*
X163345707Y-55136067D01*
X163345706Y-55136065D01*
X163344284Y-55130757D01*
X163290148Y-55014661D01*
X163249849Y-54928238D01*
X163249846Y-54928233D01*
X163247523Y-54923251D01*
X163116198Y-54735700D01*
X162954300Y-54573802D01*
X162949792Y-54570645D01*
X162949789Y-54570643D01*
X162862383Y-54509441D01*
X162766749Y-54442477D01*
X162761767Y-54440154D01*
X162761762Y-54440151D01*
X162564225Y-54348039D01*
X162564224Y-54348039D01*
X162559243Y-54345716D01*
X162553935Y-54344294D01*
X162553933Y-54344293D01*
X162343402Y-54287881D01*
X162343400Y-54287881D01*
X162338087Y-54286457D01*
X162110000Y-54266502D01*
X161881913Y-54286457D01*
X161876600Y-54287881D01*
X161876598Y-54287881D01*
X161666067Y-54344293D01*
X161666065Y-54344294D01*
X161660757Y-54345716D01*
X161655776Y-54348039D01*
X161655775Y-54348039D01*
X161458238Y-54440151D01*
X161458233Y-54440154D01*
X161453251Y-54442477D01*
X161357617Y-54509441D01*
X161270211Y-54570643D01*
X161270208Y-54570645D01*
X161265700Y-54573802D01*
X161103802Y-54735700D01*
X160972477Y-54923251D01*
X160970154Y-54928233D01*
X160970151Y-54928238D01*
X160954195Y-54962457D01*
X160907278Y-55015742D01*
X160839001Y-55035203D01*
X160771041Y-55014661D01*
X160725805Y-54962457D01*
X160709849Y-54928238D01*
X160709846Y-54928233D01*
X160707523Y-54923251D01*
X160576198Y-54735700D01*
X160414300Y-54573802D01*
X160409792Y-54570645D01*
X160409789Y-54570643D01*
X160322383Y-54509441D01*
X160226749Y-54442477D01*
X160221767Y-54440154D01*
X160221762Y-54440151D01*
X160024225Y-54348039D01*
X160024224Y-54348039D01*
X160019243Y-54345716D01*
X160013935Y-54344294D01*
X160013933Y-54344293D01*
X159803402Y-54287881D01*
X159803400Y-54287881D01*
X159798087Y-54286457D01*
X159570000Y-54266502D01*
X159341913Y-54286457D01*
X159336600Y-54287881D01*
X159336598Y-54287881D01*
X159126067Y-54344293D01*
X159126065Y-54344294D01*
X159120757Y-54345716D01*
X159115776Y-54348039D01*
X159115775Y-54348039D01*
X158918238Y-54440151D01*
X158918233Y-54440154D01*
X158913251Y-54442477D01*
X158817617Y-54509441D01*
X158730211Y-54570643D01*
X158730208Y-54570645D01*
X158725700Y-54573802D01*
X158563802Y-54735700D01*
X158432477Y-54923251D01*
X158430154Y-54928233D01*
X158430151Y-54928238D01*
X158414195Y-54962457D01*
X158367278Y-55015742D01*
X158299001Y-55035203D01*
X158231041Y-55014661D01*
X158185805Y-54962457D01*
X158169849Y-54928238D01*
X158169846Y-54928233D01*
X158167523Y-54923251D01*
X158036198Y-54735700D01*
X157874300Y-54573802D01*
X157869792Y-54570645D01*
X157869789Y-54570643D01*
X157782383Y-54509441D01*
X157686749Y-54442477D01*
X157681767Y-54440154D01*
X157681762Y-54440151D01*
X157484225Y-54348039D01*
X157484224Y-54348039D01*
X157479243Y-54345716D01*
X157473935Y-54344294D01*
X157473933Y-54344293D01*
X157263402Y-54287881D01*
X157263400Y-54287881D01*
X157258087Y-54286457D01*
X157030000Y-54266502D01*
X156801913Y-54286457D01*
X156796600Y-54287881D01*
X156796598Y-54287881D01*
X156586067Y-54344293D01*
X156586065Y-54344294D01*
X156580757Y-54345716D01*
X156575776Y-54348039D01*
X156575775Y-54348039D01*
X156378238Y-54440151D01*
X156378233Y-54440154D01*
X156373251Y-54442477D01*
X156277617Y-54509441D01*
X156190211Y-54570643D01*
X156190208Y-54570645D01*
X156185700Y-54573802D01*
X156023802Y-54735700D01*
X155892477Y-54923251D01*
X155890154Y-54928233D01*
X155890151Y-54928238D01*
X155874195Y-54962457D01*
X155827278Y-55015742D01*
X155759001Y-55035203D01*
X155691041Y-55014661D01*
X155645805Y-54962457D01*
X155629849Y-54928238D01*
X155629846Y-54928233D01*
X155627523Y-54923251D01*
X155496198Y-54735700D01*
X155334300Y-54573802D01*
X155329792Y-54570645D01*
X155329789Y-54570643D01*
X155242383Y-54509441D01*
X155146749Y-54442477D01*
X155141767Y-54440154D01*
X155141762Y-54440151D01*
X154944225Y-54348039D01*
X154944224Y-54348039D01*
X154939243Y-54345716D01*
X154933935Y-54344294D01*
X154933933Y-54344293D01*
X154723402Y-54287881D01*
X154723400Y-54287881D01*
X154718087Y-54286457D01*
X154490000Y-54266502D01*
X154261913Y-54286457D01*
X154256600Y-54287881D01*
X154256598Y-54287881D01*
X154046067Y-54344293D01*
X154046065Y-54344294D01*
X154040757Y-54345716D01*
X154035776Y-54348039D01*
X154035775Y-54348039D01*
X153838238Y-54440151D01*
X153838233Y-54440154D01*
X153833251Y-54442477D01*
X153737617Y-54509441D01*
X153650211Y-54570643D01*
X153650208Y-54570645D01*
X153645700Y-54573802D01*
X153483802Y-54735700D01*
X153352477Y-54923251D01*
X153350154Y-54928233D01*
X153350151Y-54928238D01*
X153334195Y-54962457D01*
X153287278Y-55015742D01*
X153219001Y-55035203D01*
X153151041Y-55014661D01*
X153105805Y-54962457D01*
X153089849Y-54928238D01*
X153089846Y-54928233D01*
X153087523Y-54923251D01*
X152956198Y-54735700D01*
X152794300Y-54573802D01*
X152789792Y-54570645D01*
X152789789Y-54570643D01*
X152702383Y-54509441D01*
X152606749Y-54442477D01*
X152601767Y-54440154D01*
X152601762Y-54440151D01*
X152404225Y-54348039D01*
X152404224Y-54348039D01*
X152399243Y-54345716D01*
X152393935Y-54344294D01*
X152393933Y-54344293D01*
X152183402Y-54287881D01*
X152183400Y-54287881D01*
X152178087Y-54286457D01*
X151950000Y-54266502D01*
X151721913Y-54286457D01*
X151716600Y-54287881D01*
X151716598Y-54287881D01*
X151506067Y-54344293D01*
X151506065Y-54344294D01*
X151500757Y-54345716D01*
X151495776Y-54348039D01*
X151495775Y-54348039D01*
X151298238Y-54440151D01*
X151298233Y-54440154D01*
X151293251Y-54442477D01*
X151197617Y-54509441D01*
X151110211Y-54570643D01*
X151110208Y-54570645D01*
X151105700Y-54573802D01*
X150943802Y-54735700D01*
X150812477Y-54923251D01*
X150810154Y-54928233D01*
X150810151Y-54928238D01*
X150794195Y-54962457D01*
X150747278Y-55015742D01*
X150679001Y-55035203D01*
X150611041Y-55014661D01*
X150565805Y-54962457D01*
X150549849Y-54928238D01*
X150549846Y-54928233D01*
X150547523Y-54923251D01*
X150416198Y-54735700D01*
X150254300Y-54573802D01*
X150249792Y-54570645D01*
X150249789Y-54570643D01*
X150162383Y-54509441D01*
X150066749Y-54442477D01*
X150061767Y-54440154D01*
X150061762Y-54440151D01*
X149864225Y-54348039D01*
X149864224Y-54348039D01*
X149859243Y-54345716D01*
X149853935Y-54344294D01*
X149853933Y-54344293D01*
X149643402Y-54287881D01*
X149643400Y-54287881D01*
X149638087Y-54286457D01*
X149410000Y-54266502D01*
X149181913Y-54286457D01*
X149176600Y-54287881D01*
X149176598Y-54287881D01*
X148966067Y-54344293D01*
X148966065Y-54344294D01*
X148960757Y-54345716D01*
X148955776Y-54348039D01*
X148955775Y-54348039D01*
X148758238Y-54440151D01*
X148758233Y-54440154D01*
X148753251Y-54442477D01*
X148657617Y-54509441D01*
X148570211Y-54570643D01*
X148570208Y-54570645D01*
X148565700Y-54573802D01*
X148403802Y-54735700D01*
X148272477Y-54923251D01*
X148270154Y-54928233D01*
X148270151Y-54928238D01*
X148254195Y-54962457D01*
X148207278Y-55015742D01*
X148139001Y-55035203D01*
X148071041Y-55014661D01*
X148025805Y-54962457D01*
X148009849Y-54928238D01*
X148009846Y-54928233D01*
X148007523Y-54923251D01*
X147876198Y-54735700D01*
X147714300Y-54573802D01*
X147709792Y-54570645D01*
X147709789Y-54570643D01*
X147622383Y-54509441D01*
X147526749Y-54442477D01*
X147521767Y-54440154D01*
X147521762Y-54440151D01*
X147324225Y-54348039D01*
X147324224Y-54348039D01*
X147319243Y-54345716D01*
X147313935Y-54344294D01*
X147313933Y-54344293D01*
X147103402Y-54287881D01*
X147103400Y-54287881D01*
X147098087Y-54286457D01*
X146870000Y-54266502D01*
X146641913Y-54286457D01*
X146636600Y-54287881D01*
X146636598Y-54287881D01*
X146426067Y-54344293D01*
X146426065Y-54344294D01*
X146420757Y-54345716D01*
X146415776Y-54348039D01*
X146415775Y-54348039D01*
X146218238Y-54440151D01*
X146218233Y-54440154D01*
X146213251Y-54442477D01*
X146117617Y-54509441D01*
X146030211Y-54570643D01*
X146030208Y-54570645D01*
X146025700Y-54573802D01*
X145863802Y-54735700D01*
X145732477Y-54923251D01*
X145730154Y-54928233D01*
X145730151Y-54928238D01*
X145714195Y-54962457D01*
X145667278Y-55015742D01*
X145599001Y-55035203D01*
X145531041Y-55014661D01*
X145485805Y-54962457D01*
X145469849Y-54928238D01*
X145469846Y-54928233D01*
X145467523Y-54923251D01*
X145336198Y-54735700D01*
X145174300Y-54573802D01*
X145169792Y-54570645D01*
X145169789Y-54570643D01*
X145082383Y-54509441D01*
X144986749Y-54442477D01*
X144981767Y-54440154D01*
X144981762Y-54440151D01*
X144784225Y-54348039D01*
X144784224Y-54348039D01*
X144779243Y-54345716D01*
X144773935Y-54344294D01*
X144773933Y-54344293D01*
X144563402Y-54287881D01*
X144563400Y-54287881D01*
X144558087Y-54286457D01*
X144330000Y-54266502D01*
X144101913Y-54286457D01*
X144096600Y-54287881D01*
X144096598Y-54287881D01*
X143886067Y-54344293D01*
X143886065Y-54344294D01*
X143880757Y-54345716D01*
X143875776Y-54348039D01*
X143875775Y-54348039D01*
X143678238Y-54440151D01*
X143678233Y-54440154D01*
X143673251Y-54442477D01*
X143577617Y-54509441D01*
X143490211Y-54570643D01*
X143490208Y-54570645D01*
X143485700Y-54573802D01*
X143323802Y-54735700D01*
X143192477Y-54923251D01*
X143190154Y-54928233D01*
X143190151Y-54928238D01*
X143174195Y-54962457D01*
X143127278Y-55015742D01*
X143059001Y-55035203D01*
X142991041Y-55014661D01*
X142945805Y-54962457D01*
X142929849Y-54928238D01*
X142929846Y-54928233D01*
X142927523Y-54923251D01*
X142796198Y-54735700D01*
X142634300Y-54573802D01*
X142629792Y-54570645D01*
X142629789Y-54570643D01*
X142542383Y-54509441D01*
X142446749Y-54442477D01*
X142441767Y-54440154D01*
X142441762Y-54440151D01*
X142244225Y-54348039D01*
X142244224Y-54348039D01*
X142239243Y-54345716D01*
X142233935Y-54344294D01*
X142233933Y-54344293D01*
X142023402Y-54287881D01*
X142023400Y-54287881D01*
X142018087Y-54286457D01*
X141790000Y-54266502D01*
X141561913Y-54286457D01*
X141556600Y-54287881D01*
X141556598Y-54287881D01*
X141346067Y-54344293D01*
X141346065Y-54344294D01*
X141340757Y-54345716D01*
X141335776Y-54348039D01*
X141335775Y-54348039D01*
X141138238Y-54440151D01*
X141138233Y-54440154D01*
X141133251Y-54442477D01*
X141037617Y-54509441D01*
X140950211Y-54570643D01*
X140950208Y-54570645D01*
X140945700Y-54573802D01*
X140783802Y-54735700D01*
X140652477Y-54923251D01*
X140650154Y-54928233D01*
X140650151Y-54928238D01*
X140634195Y-54962457D01*
X140587278Y-55015742D01*
X140519001Y-55035203D01*
X140451041Y-55014661D01*
X140405805Y-54962457D01*
X140389849Y-54928238D01*
X140389846Y-54928233D01*
X140387523Y-54923251D01*
X140256198Y-54735700D01*
X140094300Y-54573802D01*
X140089792Y-54570645D01*
X140089789Y-54570643D01*
X140002383Y-54509441D01*
X139906749Y-54442477D01*
X139901767Y-54440154D01*
X139901762Y-54440151D01*
X139704225Y-54348039D01*
X139704224Y-54348039D01*
X139699243Y-54345716D01*
X139693935Y-54344294D01*
X139693933Y-54344293D01*
X139483402Y-54287881D01*
X139483400Y-54287881D01*
X139478087Y-54286457D01*
X139250000Y-54266502D01*
X139021913Y-54286457D01*
X139016600Y-54287881D01*
X139016598Y-54287881D01*
X138806067Y-54344293D01*
X138806065Y-54344294D01*
X138800757Y-54345716D01*
X138795776Y-54348039D01*
X138795775Y-54348039D01*
X138598238Y-54440151D01*
X138598233Y-54440154D01*
X138593251Y-54442477D01*
X138497617Y-54509441D01*
X138410211Y-54570643D01*
X138410208Y-54570645D01*
X138405700Y-54573802D01*
X138243802Y-54735700D01*
X138112477Y-54923251D01*
X138110154Y-54928233D01*
X138110151Y-54928238D01*
X138094195Y-54962457D01*
X138047278Y-55015742D01*
X137979001Y-55035203D01*
X137911041Y-55014661D01*
X137865805Y-54962457D01*
X137849849Y-54928238D01*
X137849846Y-54928233D01*
X137847523Y-54923251D01*
X137716198Y-54735700D01*
X137554300Y-54573802D01*
X137549792Y-54570645D01*
X137549789Y-54570643D01*
X137462383Y-54509441D01*
X137366749Y-54442477D01*
X137361767Y-54440154D01*
X137361762Y-54440151D01*
X137164225Y-54348039D01*
X137164224Y-54348039D01*
X137159243Y-54345716D01*
X137153935Y-54344294D01*
X137153933Y-54344293D01*
X136943402Y-54287881D01*
X136943400Y-54287881D01*
X136938087Y-54286457D01*
X136710000Y-54266502D01*
X136481913Y-54286457D01*
X136476600Y-54287881D01*
X136476598Y-54287881D01*
X136266067Y-54344293D01*
X136266065Y-54344294D01*
X136260757Y-54345716D01*
X136255776Y-54348039D01*
X136255775Y-54348039D01*
X136058238Y-54440151D01*
X136058233Y-54440154D01*
X136053251Y-54442477D01*
X135957617Y-54509441D01*
X135870211Y-54570643D01*
X135870208Y-54570645D01*
X135865700Y-54573802D01*
X135703802Y-54735700D01*
X135572477Y-54923251D01*
X135570154Y-54928233D01*
X135570151Y-54928238D01*
X135554195Y-54962457D01*
X135507278Y-55015742D01*
X135439001Y-55035203D01*
X135371041Y-55014661D01*
X135325805Y-54962457D01*
X135309849Y-54928238D01*
X135309846Y-54928233D01*
X135307523Y-54923251D01*
X135176198Y-54735700D01*
X135014300Y-54573802D01*
X135009792Y-54570645D01*
X135009789Y-54570643D01*
X134922383Y-54509441D01*
X134826749Y-54442477D01*
X134821767Y-54440154D01*
X134821762Y-54440151D01*
X134624225Y-54348039D01*
X134624224Y-54348039D01*
X134619243Y-54345716D01*
X134613935Y-54344294D01*
X134613933Y-54344293D01*
X134403402Y-54287881D01*
X134403400Y-54287881D01*
X134398087Y-54286457D01*
X134170000Y-54266502D01*
X133941913Y-54286457D01*
X133936600Y-54287881D01*
X133936598Y-54287881D01*
X133726067Y-54344293D01*
X133726065Y-54344294D01*
X133720757Y-54345716D01*
X133715776Y-54348039D01*
X133715775Y-54348039D01*
X133518238Y-54440151D01*
X133518233Y-54440154D01*
X133513251Y-54442477D01*
X133417617Y-54509441D01*
X133330211Y-54570643D01*
X133330208Y-54570645D01*
X133325700Y-54573802D01*
X133163802Y-54735700D01*
X133032477Y-54923251D01*
X133030154Y-54928233D01*
X133030151Y-54928238D01*
X133014195Y-54962457D01*
X132967278Y-55015742D01*
X132899001Y-55035203D01*
X132831041Y-55014661D01*
X132785805Y-54962457D01*
X132769849Y-54928238D01*
X132769846Y-54928233D01*
X132767523Y-54923251D01*
X132636198Y-54735700D01*
X132474300Y-54573802D01*
X132469792Y-54570645D01*
X132469789Y-54570643D01*
X132382383Y-54509441D01*
X132286749Y-54442477D01*
X132281767Y-54440154D01*
X132281762Y-54440151D01*
X132084225Y-54348039D01*
X132084224Y-54348039D01*
X132079243Y-54345716D01*
X132073935Y-54344294D01*
X132073933Y-54344293D01*
X131863402Y-54287881D01*
X131863400Y-54287881D01*
X131858087Y-54286457D01*
X131630000Y-54266502D01*
X131401913Y-54286457D01*
X131396600Y-54287881D01*
X131396598Y-54287881D01*
X131186067Y-54344293D01*
X131186065Y-54344294D01*
X131180757Y-54345716D01*
X131175776Y-54348039D01*
X131175775Y-54348039D01*
X130978238Y-54440151D01*
X130978233Y-54440154D01*
X130973251Y-54442477D01*
X130877617Y-54509441D01*
X130790211Y-54570643D01*
X130790208Y-54570645D01*
X130785700Y-54573802D01*
X130623802Y-54735700D01*
X130492477Y-54923251D01*
X130490154Y-54928233D01*
X130490151Y-54928238D01*
X130473919Y-54963049D01*
X130427002Y-55016334D01*
X130358725Y-55035795D01*
X130290765Y-55015253D01*
X130245529Y-54963049D01*
X130229414Y-54928489D01*
X130223931Y-54918993D01*
X130098972Y-54740533D01*
X130091916Y-54732125D01*
X129937875Y-54578084D01*
X129929467Y-54571028D01*
X129751007Y-54446069D01*
X129741511Y-54440586D01*
X129544053Y-54348510D01*
X129533761Y-54344764D01*
X129361497Y-54298606D01*
X129347401Y-54298942D01*
X129344000Y-54306884D01*
X129344000Y-56847967D01*
X129347973Y-56861498D01*
X129356522Y-56862727D01*
X129533761Y-56815236D01*
X129544053Y-56811490D01*
X129741511Y-56719414D01*
X129751007Y-56713931D01*
X129929467Y-56588972D01*
X129937875Y-56581916D01*
X130091916Y-56427875D01*
X130098972Y-56419467D01*
X130223931Y-56241007D01*
X130229414Y-56231511D01*
X130245529Y-56196951D01*
X130292446Y-56143666D01*
X130360723Y-56124205D01*
X130428683Y-56144747D01*
X130473919Y-56196951D01*
X130490151Y-56231762D01*
X130490154Y-56231767D01*
X130492477Y-56236749D01*
X130623802Y-56424300D01*
X130785700Y-56586198D01*
X130790208Y-56589355D01*
X130790211Y-56589357D01*
X130844682Y-56627498D01*
X130973251Y-56717523D01*
X130978233Y-56719846D01*
X130978238Y-56719849D01*
X131164068Y-56806502D01*
X131180757Y-56814284D01*
X131186065Y-56815706D01*
X131186067Y-56815707D01*
X131396598Y-56872119D01*
X131396600Y-56872119D01*
X131401913Y-56873543D01*
X131630000Y-56893498D01*
X131858087Y-56873543D01*
X131863400Y-56872119D01*
X131863402Y-56872119D01*
X132073933Y-56815707D01*
X132073935Y-56815706D01*
X132079243Y-56814284D01*
X132095932Y-56806502D01*
X132281762Y-56719849D01*
X132281767Y-56719846D01*
X132286749Y-56717523D01*
X132415318Y-56627498D01*
X132469789Y-56589357D01*
X132469792Y-56589355D01*
X132474300Y-56586198D01*
X132636198Y-56424300D01*
X132767523Y-56236749D01*
X132769846Y-56231767D01*
X132769849Y-56231762D01*
X132785805Y-56197543D01*
X132832722Y-56144258D01*
X132900999Y-56124797D01*
X132968959Y-56145339D01*
X133014195Y-56197543D01*
X133030151Y-56231762D01*
X133030154Y-56231767D01*
X133032477Y-56236749D01*
X133163802Y-56424300D01*
X133325700Y-56586198D01*
X133330208Y-56589355D01*
X133330211Y-56589357D01*
X133384682Y-56627498D01*
X133513251Y-56717523D01*
X133518233Y-56719846D01*
X133518238Y-56719849D01*
X133704068Y-56806502D01*
X133720757Y-56814284D01*
X133726065Y-56815706D01*
X133726067Y-56815707D01*
X133936598Y-56872119D01*
X133936600Y-56872119D01*
X133941913Y-56873543D01*
X134170000Y-56893498D01*
X134398087Y-56873543D01*
X134403400Y-56872119D01*
X134403402Y-56872119D01*
X134613933Y-56815707D01*
X134613935Y-56815706D01*
X134619243Y-56814284D01*
X134635932Y-56806502D01*
X134821762Y-56719849D01*
X134821767Y-56719846D01*
X134826749Y-56717523D01*
X134955318Y-56627498D01*
X135009789Y-56589357D01*
X135009792Y-56589355D01*
X135014300Y-56586198D01*
X135176198Y-56424300D01*
X135307523Y-56236749D01*
X135309846Y-56231767D01*
X135309849Y-56231762D01*
X135325805Y-56197543D01*
X135372722Y-56144258D01*
X135440999Y-56124797D01*
X135508959Y-56145339D01*
X135554195Y-56197543D01*
X135570151Y-56231762D01*
X135570154Y-56231767D01*
X135572477Y-56236749D01*
X135703802Y-56424300D01*
X135865700Y-56586198D01*
X135870208Y-56589355D01*
X135870211Y-56589357D01*
X135924682Y-56627498D01*
X136053251Y-56717523D01*
X136058233Y-56719846D01*
X136058238Y-56719849D01*
X136244068Y-56806502D01*
X136260757Y-56814284D01*
X136266065Y-56815706D01*
X136266067Y-56815707D01*
X136476598Y-56872119D01*
X136476600Y-56872119D01*
X136481913Y-56873543D01*
X136710000Y-56893498D01*
X136938087Y-56873543D01*
X136943400Y-56872119D01*
X136943402Y-56872119D01*
X137153933Y-56815707D01*
X137153935Y-56815706D01*
X137159243Y-56814284D01*
X137175932Y-56806502D01*
X137361762Y-56719849D01*
X137361767Y-56719846D01*
X137366749Y-56717523D01*
X137495318Y-56627498D01*
X137549789Y-56589357D01*
X137549792Y-56589355D01*
X137554300Y-56586198D01*
X137716198Y-56424300D01*
X137847523Y-56236749D01*
X137849846Y-56231767D01*
X137849849Y-56231762D01*
X137865805Y-56197543D01*
X137912722Y-56144258D01*
X137980999Y-56124797D01*
X138048959Y-56145339D01*
X138094195Y-56197543D01*
X138110151Y-56231762D01*
X138110154Y-56231767D01*
X138112477Y-56236749D01*
X138243802Y-56424300D01*
X138405700Y-56586198D01*
X138410208Y-56589355D01*
X138410211Y-56589357D01*
X138464682Y-56627498D01*
X138593251Y-56717523D01*
X138598233Y-56719846D01*
X138598238Y-56719849D01*
X138784068Y-56806502D01*
X138800757Y-56814284D01*
X138806065Y-56815706D01*
X138806067Y-56815707D01*
X139016598Y-56872119D01*
X139016600Y-56872119D01*
X139021913Y-56873543D01*
X139250000Y-56893498D01*
X139478087Y-56873543D01*
X139483400Y-56872119D01*
X139483402Y-56872119D01*
X139693933Y-56815707D01*
X139693935Y-56815706D01*
X139699243Y-56814284D01*
X139715932Y-56806502D01*
X139901762Y-56719849D01*
X139901767Y-56719846D01*
X139906749Y-56717523D01*
X140035318Y-56627498D01*
X140089789Y-56589357D01*
X140089792Y-56589355D01*
X140094300Y-56586198D01*
X140256198Y-56424300D01*
X140387523Y-56236749D01*
X140389846Y-56231767D01*
X140389849Y-56231762D01*
X140405805Y-56197543D01*
X140452722Y-56144258D01*
X140520999Y-56124797D01*
X140588959Y-56145339D01*
X140634195Y-56197543D01*
X140650151Y-56231762D01*
X140650154Y-56231767D01*
X140652477Y-56236749D01*
X140783802Y-56424300D01*
X140945700Y-56586198D01*
X140950208Y-56589355D01*
X140950211Y-56589357D01*
X141004682Y-56627498D01*
X141133251Y-56717523D01*
X141138233Y-56719846D01*
X141138238Y-56719849D01*
X141324068Y-56806502D01*
X141340757Y-56814284D01*
X141346065Y-56815706D01*
X141346067Y-56815707D01*
X141556598Y-56872119D01*
X141556600Y-56872119D01*
X141561913Y-56873543D01*
X141790000Y-56893498D01*
X142018087Y-56873543D01*
X142023398Y-56872120D01*
X142023409Y-56872118D01*
X142081541Y-56856541D01*
X142152517Y-56858230D01*
X142203248Y-56889152D01*
X144506343Y-59192247D01*
X144513887Y-59200537D01*
X144518000Y-59207018D01*
X144523777Y-59212443D01*
X144567667Y-59253658D01*
X144570509Y-59256413D01*
X144590231Y-59276135D01*
X144593355Y-59278558D01*
X144593359Y-59278562D01*
X144593424Y-59278612D01*
X144602445Y-59286317D01*
X144634679Y-59316586D01*
X144641627Y-59320405D01*
X144641629Y-59320407D01*
X144652432Y-59326346D01*
X144668959Y-59337202D01*
X144678698Y-59344757D01*
X144678700Y-59344758D01*
X144684960Y-59349614D01*
X144725540Y-59367174D01*
X144736188Y-59372391D01*
X144774940Y-59393695D01*
X144782616Y-59395666D01*
X144782619Y-59395667D01*
X144794562Y-59398733D01*
X144813267Y-59405137D01*
X144831855Y-59413181D01*
X144839678Y-59414420D01*
X144839688Y-59414423D01*
X144875524Y-59420099D01*
X144887144Y-59422505D01*
X144922289Y-59431528D01*
X144929970Y-59433500D01*
X144950224Y-59433500D01*
X144969934Y-59435051D01*
X144989943Y-59438220D01*
X144997835Y-59437474D01*
X145033961Y-59434059D01*
X145045819Y-59433500D01*
X160804507Y-59433500D01*
X160872628Y-59453502D01*
X160919121Y-59507158D01*
X160929225Y-59577432D01*
X160899731Y-59642012D01*
X160889309Y-59652691D01*
X160884522Y-59657047D01*
X160877494Y-59664583D01*
X160735055Y-59844944D01*
X160729350Y-59853531D01*
X160618286Y-60054722D01*
X160614056Y-60064134D01*
X160537341Y-60280768D01*
X160534707Y-60290739D01*
X160517353Y-60388163D01*
X160518813Y-60401460D01*
X160533370Y-60406000D01*
X163468096Y-60406000D01*
X163481440Y-60402082D01*
X163483427Y-60387806D01*
X163473890Y-60325485D01*
X163471501Y-60315457D01*
X163400102Y-60097012D01*
X163396105Y-60087503D01*
X163289989Y-59883656D01*
X163284495Y-59874931D01*
X163146507Y-59691148D01*
X163139670Y-59683447D01*
X163105291Y-59650594D01*
X163069862Y-59589069D01*
X163073319Y-59518157D01*
X163114565Y-59460371D01*
X163180506Y-59434057D01*
X163192343Y-59433500D01*
X164685406Y-59433500D01*
X164753527Y-59453502D01*
X164774501Y-59470405D01*
X166329595Y-61025500D01*
X166363621Y-61087812D01*
X166366500Y-61114595D01*
X166366500Y-72685405D01*
X166346498Y-72753526D01*
X166329595Y-72774500D01*
X162174500Y-76929595D01*
X162112188Y-76963621D01*
X162085405Y-76966500D01*
X152278767Y-76966500D01*
X152267584Y-76965973D01*
X152260091Y-76964298D01*
X152252165Y-76964547D01*
X152252164Y-76964547D01*
X152192014Y-76966438D01*
X152188055Y-76966500D01*
X152160144Y-76966500D01*
X152156210Y-76966997D01*
X152156209Y-76966997D01*
X152156144Y-76967005D01*
X152144307Y-76967938D01*
X152112490Y-76968938D01*
X152108029Y-76969078D01*
X152100110Y-76969327D01*
X152082454Y-76974456D01*
X152080658Y-76974978D01*
X152061306Y-76978986D01*
X152054235Y-76979880D01*
X152041203Y-76981526D01*
X152033834Y-76984443D01*
X152033832Y-76984444D01*
X152000097Y-76997800D01*
X151988869Y-77001645D01*
X151946407Y-77013982D01*
X151939585Y-77018016D01*
X151939579Y-77018019D01*
X151928968Y-77024294D01*
X151911218Y-77032990D01*
X151899756Y-77037528D01*
X151899751Y-77037531D01*
X151892383Y-77040448D01*
X151885968Y-77045109D01*
X151856625Y-77066427D01*
X151846707Y-77072943D01*
X151828019Y-77083995D01*
X151808637Y-77095458D01*
X151794313Y-77109782D01*
X151779281Y-77122621D01*
X151762893Y-77134528D01*
X151745364Y-77155717D01*
X151734712Y-77168593D01*
X151726722Y-77177373D01*
X151514500Y-77389595D01*
X151452188Y-77423621D01*
X151425405Y-77426500D01*
X150611793Y-77426500D01*
X150588184Y-77424268D01*
X150587881Y-77424210D01*
X150587877Y-77424210D01*
X150580094Y-77422725D01*
X150524049Y-77426251D01*
X150516138Y-77426500D01*
X150500144Y-77426500D01*
X150484270Y-77428506D01*
X150476410Y-77429248D01*
X150448951Y-77430976D01*
X150428263Y-77432277D01*
X150428262Y-77432277D01*
X150420350Y-77432775D01*
X150412809Y-77435225D01*
X150412513Y-77435321D01*
X150389369Y-77440494D01*
X150389065Y-77440532D01*
X150389060Y-77440533D01*
X150381203Y-77441526D01*
X150373838Y-77444442D01*
X150373834Y-77444443D01*
X150328989Y-77462199D01*
X150321570Y-77464871D01*
X150268125Y-77482236D01*
X150261429Y-77486486D01*
X150261428Y-77486486D01*
X150261169Y-77486650D01*
X150240042Y-77497415D01*
X150239754Y-77497529D01*
X150239749Y-77497532D01*
X150232383Y-77500448D01*
X150225975Y-77505104D01*
X150225969Y-77505107D01*
X150186948Y-77533458D01*
X150180411Y-77537901D01*
X150132982Y-77568000D01*
X150127556Y-77573778D01*
X150127555Y-77573779D01*
X150127341Y-77574007D01*
X150109554Y-77589688D01*
X150109309Y-77589866D01*
X150109307Y-77589868D01*
X150102893Y-77594528D01*
X150097839Y-77600637D01*
X150097838Y-77600638D01*
X150067097Y-77637796D01*
X150061866Y-77643730D01*
X150028842Y-77678898D01*
X150028840Y-77678901D01*
X150023414Y-77684679D01*
X150019445Y-77691899D01*
X150006119Y-77711506D01*
X150005920Y-77711746D01*
X150005916Y-77711753D01*
X150000867Y-77717856D01*
X149991648Y-77737447D01*
X149976953Y-77768676D01*
X149973371Y-77775708D01*
X149946305Y-77824940D01*
X149944335Y-77832615D01*
X149944332Y-77832621D01*
X149944256Y-77832919D01*
X149936224Y-77855228D01*
X149936094Y-77855503D01*
X149936091Y-77855511D01*
X149932717Y-77862682D01*
X149931231Y-77870474D01*
X149922195Y-77917843D01*
X149920471Y-77925558D01*
X149906500Y-77979970D01*
X149906500Y-77988207D01*
X149904268Y-78011816D01*
X149902725Y-78019906D01*
X149905051Y-78056875D01*
X149906251Y-78075951D01*
X149906500Y-78083862D01*
X149906500Y-78546692D01*
X149886498Y-78614813D01*
X149838683Y-78658453D01*
X149813607Y-78671507D01*
X149809474Y-78674610D01*
X149809471Y-78674612D01*
X149639100Y-78802530D01*
X149634965Y-78805635D01*
X149631393Y-78809373D01*
X149553898Y-78890466D01*
X149492374Y-78925895D01*
X149421462Y-78922438D01*
X149363676Y-78881192D01*
X149344823Y-78847644D01*
X149303324Y-78736946D01*
X149294786Y-78721351D01*
X149218285Y-78619276D01*
X149205724Y-78606715D01*
X149103649Y-78530214D01*
X149088054Y-78521676D01*
X148967606Y-78476522D01*
X148952351Y-78472895D01*
X148901486Y-78467369D01*
X148894672Y-78467000D01*
X148272115Y-78467000D01*
X148256876Y-78471475D01*
X148255671Y-78472865D01*
X148254000Y-78480548D01*
X148254000Y-81164884D01*
X148258475Y-81180123D01*
X148259865Y-81181328D01*
X148267548Y-81182999D01*
X148894669Y-81182999D01*
X148901490Y-81182629D01*
X148952352Y-81177105D01*
X148967604Y-81173479D01*
X149088054Y-81128324D01*
X149103649Y-81119786D01*
X149205724Y-81043285D01*
X149218285Y-81030724D01*
X149294786Y-80928649D01*
X149303324Y-80913054D01*
X149344225Y-80803952D01*
X149386867Y-80747188D01*
X149453428Y-80722488D01*
X149522777Y-80737696D01*
X149557444Y-80765684D01*
X149582865Y-80795031D01*
X149582869Y-80795035D01*
X149586250Y-80798938D01*
X149758126Y-80941632D01*
X149951000Y-81054338D01*
X150159692Y-81134030D01*
X150164760Y-81135061D01*
X150164763Y-81135062D01*
X150272017Y-81156883D01*
X150378597Y-81178567D01*
X150383772Y-81178757D01*
X150383774Y-81178757D01*
X150596673Y-81186564D01*
X150596677Y-81186564D01*
X150601837Y-81186753D01*
X150606957Y-81186097D01*
X150606959Y-81186097D01*
X150818288Y-81159025D01*
X150818289Y-81159025D01*
X150823416Y-81158368D01*
X150869827Y-81144444D01*
X151032429Y-81095661D01*
X151032434Y-81095659D01*
X151037384Y-81094174D01*
X151237994Y-80995896D01*
X151419860Y-80866173D01*
X151426824Y-80859234D01*
X151535186Y-80751249D01*
X151578096Y-80708489D01*
X151611122Y-80662529D01*
X151708453Y-80527077D01*
X151709776Y-80528028D01*
X151756645Y-80484857D01*
X151826580Y-80472625D01*
X151892026Y-80500144D01*
X151919875Y-80531994D01*
X151979987Y-80630088D01*
X152126250Y-80798938D01*
X152298126Y-80941632D01*
X152491000Y-81054338D01*
X152699692Y-81134030D01*
X152704760Y-81135061D01*
X152704763Y-81135062D01*
X152812017Y-81156883D01*
X152918597Y-81178567D01*
X152923772Y-81178757D01*
X152923774Y-81178757D01*
X153136673Y-81186564D01*
X153136677Y-81186564D01*
X153141837Y-81186753D01*
X153146957Y-81186097D01*
X153146959Y-81186097D01*
X153358288Y-81159025D01*
X153358289Y-81159025D01*
X153363416Y-81158368D01*
X153409827Y-81144444D01*
X153480823Y-81144028D01*
X153535131Y-81176035D01*
X153885500Y-81526405D01*
X153919525Y-81588717D01*
X153914460Y-81659533D01*
X153871913Y-81716368D01*
X153805393Y-81741179D01*
X153796404Y-81741500D01*
X125150629Y-81741500D01*
X125149903Y-81741498D01*
X125094556Y-81741179D01*
X100883773Y-81601636D01*
X100815769Y-81581242D01*
X100769587Y-81527319D01*
X100758500Y-81475638D01*
X100758500Y-79042277D01*
X101637009Y-79042277D01*
X101662625Y-79310769D01*
X101663710Y-79315203D01*
X101663711Y-79315209D01*
X101709663Y-79502998D01*
X101726731Y-79572750D01*
X101827985Y-79822733D01*
X101964265Y-80055482D01*
X102065662Y-80182272D01*
X102123019Y-80253993D01*
X102132716Y-80266119D01*
X102329809Y-80450234D01*
X102551416Y-80603968D01*
X102555499Y-80605999D01*
X102555502Y-80606001D01*
X102611763Y-80633990D01*
X102792894Y-80724101D01*
X102797228Y-80725522D01*
X102797231Y-80725523D01*
X103044853Y-80806698D01*
X103044859Y-80806699D01*
X103049186Y-80808118D01*
X103053677Y-80808898D01*
X103053678Y-80808898D01*
X103311140Y-80853601D01*
X103311148Y-80853602D01*
X103314921Y-80854257D01*
X103318758Y-80854448D01*
X103398578Y-80858422D01*
X103398586Y-80858422D01*
X103400149Y-80858500D01*
X103568512Y-80858500D01*
X103570780Y-80858335D01*
X103570792Y-80858335D01*
X103701884Y-80848823D01*
X103769004Y-80843953D01*
X103773459Y-80842969D01*
X103773462Y-80842969D01*
X104027912Y-80786791D01*
X104027916Y-80786790D01*
X104032372Y-80785806D01*
X104165395Y-80735408D01*
X104280318Y-80691868D01*
X104280321Y-80691867D01*
X104284588Y-80690250D01*
X104474537Y-80584743D01*
X104516375Y-80561504D01*
X104516376Y-80561503D01*
X104520368Y-80559286D01*
X104734773Y-80395657D01*
X104738032Y-80392324D01*
X104920117Y-80206060D01*
X104923312Y-80202792D01*
X105082034Y-79984730D01*
X105137661Y-79879000D01*
X105205490Y-79750079D01*
X105205493Y-79750073D01*
X105207615Y-79746039D01*
X105225672Y-79694908D01*
X105295902Y-79496033D01*
X105295902Y-79496032D01*
X105297425Y-79491720D01*
X105349581Y-79227100D01*
X105351642Y-79185702D01*
X105362764Y-78962292D01*
X105362764Y-78962286D01*
X105362991Y-78957723D01*
X105337375Y-78689231D01*
X105335669Y-78682256D01*
X105274355Y-78431688D01*
X105273269Y-78427250D01*
X105172015Y-78177267D01*
X105035735Y-77944518D01*
X104917928Y-77797208D01*
X104870136Y-77737447D01*
X104870135Y-77737445D01*
X104867284Y-77733881D01*
X104670191Y-77549766D01*
X104448584Y-77396032D01*
X104444501Y-77394001D01*
X104444498Y-77393999D01*
X104328987Y-77336534D01*
X104207106Y-77275899D01*
X104202772Y-77274478D01*
X104202769Y-77274477D01*
X103955147Y-77193302D01*
X103955141Y-77193301D01*
X103950814Y-77191882D01*
X103946322Y-77191102D01*
X103688860Y-77146399D01*
X103688852Y-77146398D01*
X103685079Y-77145743D01*
X103664189Y-77144703D01*
X103601422Y-77141578D01*
X103601414Y-77141578D01*
X103599851Y-77141500D01*
X103431488Y-77141500D01*
X103429220Y-77141665D01*
X103429208Y-77141665D01*
X103298116Y-77151177D01*
X103230996Y-77156047D01*
X103226541Y-77157031D01*
X103226538Y-77157031D01*
X102972088Y-77213209D01*
X102972084Y-77213210D01*
X102967628Y-77214194D01*
X102848794Y-77259216D01*
X102719682Y-77308132D01*
X102719679Y-77308133D01*
X102715412Y-77309750D01*
X102651783Y-77345093D01*
X102522567Y-77416866D01*
X102479632Y-77440714D01*
X102428433Y-77479788D01*
X102284430Y-77589688D01*
X102265227Y-77604343D01*
X102262034Y-77607609D01*
X102262032Y-77607611D01*
X102216982Y-77653695D01*
X102076688Y-77797208D01*
X101917966Y-78015270D01*
X101883958Y-78079909D01*
X101794510Y-78249921D01*
X101794507Y-78249927D01*
X101792385Y-78253961D01*
X101790865Y-78258266D01*
X101790863Y-78258270D01*
X101704098Y-78503967D01*
X101702575Y-78508280D01*
X101688266Y-78580880D01*
X101651555Y-78767138D01*
X101650419Y-78772900D01*
X101650192Y-78777453D01*
X101650192Y-78777456D01*
X101639114Y-79000000D01*
X101637009Y-79042277D01*
X100758500Y-79042277D01*
X100758500Y-70444669D01*
X101087001Y-70444669D01*
X101087371Y-70451490D01*
X101092895Y-70502352D01*
X101096521Y-70517604D01*
X101141676Y-70638054D01*
X101150214Y-70653649D01*
X101226715Y-70755724D01*
X101239276Y-70768285D01*
X101341351Y-70844786D01*
X101356946Y-70853324D01*
X101477394Y-70898478D01*
X101492649Y-70902105D01*
X101543514Y-70907631D01*
X101550328Y-70908000D01*
X102622885Y-70908000D01*
X102638124Y-70903525D01*
X102639329Y-70902135D01*
X102641000Y-70894452D01*
X102641000Y-70889884D01*
X103149000Y-70889884D01*
X103153475Y-70905123D01*
X103154865Y-70906328D01*
X103162548Y-70907999D01*
X104239669Y-70907999D01*
X104246490Y-70907629D01*
X104297352Y-70902105D01*
X104312604Y-70898479D01*
X104433054Y-70853324D01*
X104448649Y-70844786D01*
X104550724Y-70768285D01*
X104563285Y-70755724D01*
X104639786Y-70653649D01*
X104648324Y-70638054D01*
X104693478Y-70517606D01*
X104697105Y-70502351D01*
X104702631Y-70451486D01*
X104703000Y-70444672D01*
X104703000Y-69372115D01*
X104698525Y-69356876D01*
X104697135Y-69355671D01*
X104689452Y-69354000D01*
X103167115Y-69354000D01*
X103151876Y-69358475D01*
X103150671Y-69359865D01*
X103149000Y-69367548D01*
X103149000Y-70889884D01*
X102641000Y-70889884D01*
X102641000Y-69372115D01*
X102636525Y-69356876D01*
X102635135Y-69355671D01*
X102627452Y-69354000D01*
X101105116Y-69354000D01*
X101089877Y-69358475D01*
X101088672Y-69359865D01*
X101087001Y-69367548D01*
X101087001Y-70444669D01*
X100758500Y-70444669D01*
X100758500Y-68827885D01*
X101087000Y-68827885D01*
X101091475Y-68843124D01*
X101092865Y-68844329D01*
X101100548Y-68846000D01*
X102622885Y-68846000D01*
X102638124Y-68841525D01*
X102639329Y-68840135D01*
X102641000Y-68832452D01*
X102641000Y-68827885D01*
X103149000Y-68827885D01*
X103153475Y-68843124D01*
X103154865Y-68844329D01*
X103162548Y-68846000D01*
X104684884Y-68846000D01*
X104700123Y-68841525D01*
X104701328Y-68840135D01*
X104702999Y-68832452D01*
X104702999Y-67755331D01*
X104702629Y-67748510D01*
X104697105Y-67697648D01*
X104693479Y-67682396D01*
X104648324Y-67561946D01*
X104639786Y-67546351D01*
X104563285Y-67444276D01*
X104550724Y-67431715D01*
X104448649Y-67355214D01*
X104433054Y-67346676D01*
X104312606Y-67301522D01*
X104297351Y-67297895D01*
X104246486Y-67292369D01*
X104239672Y-67292000D01*
X103167115Y-67292000D01*
X103151876Y-67296475D01*
X103150671Y-67297865D01*
X103149000Y-67305548D01*
X103149000Y-68827885D01*
X102641000Y-68827885D01*
X102641000Y-67310116D01*
X102636525Y-67294877D01*
X102635135Y-67293672D01*
X102627452Y-67292001D01*
X101550331Y-67292001D01*
X101543510Y-67292371D01*
X101492648Y-67297895D01*
X101477396Y-67301521D01*
X101356946Y-67346676D01*
X101341351Y-67355214D01*
X101239276Y-67431715D01*
X101226715Y-67444276D01*
X101150214Y-67546351D01*
X101141676Y-67561946D01*
X101096522Y-67682394D01*
X101092895Y-67697649D01*
X101087369Y-67748514D01*
X101087000Y-67755328D01*
X101087000Y-68827885D01*
X100758500Y-68827885D01*
X100758500Y-64793388D01*
X100778502Y-64725267D01*
X100832158Y-64678774D01*
X100902432Y-64668670D01*
X100967012Y-64698164D01*
X101004024Y-64753512D01*
X101039900Y-64861047D01*
X101042058Y-64867514D01*
X101044050Y-64871501D01*
X101044051Y-64871503D01*
X101153998Y-65091541D01*
X101168687Y-65120939D01*
X101329761Y-65353993D01*
X101522065Y-65562027D01*
X101525519Y-65564839D01*
X101738307Y-65738075D01*
X101738311Y-65738078D01*
X101741764Y-65740889D01*
X101984472Y-65887012D01*
X101988567Y-65888746D01*
X101988569Y-65888747D01*
X102241247Y-65995742D01*
X102241254Y-65995744D01*
X102245348Y-65997478D01*
X102340439Y-66022691D01*
X102514889Y-66068946D01*
X102514893Y-66068947D01*
X102519186Y-66070085D01*
X102523595Y-66070607D01*
X102523601Y-66070608D01*
X102680954Y-66089232D01*
X102800523Y-66103384D01*
X103083745Y-66096709D01*
X103100135Y-66093981D01*
X103358810Y-66050926D01*
X103358814Y-66050925D01*
X103363200Y-66050195D01*
X103367441Y-66048854D01*
X103367444Y-66048853D01*
X103629068Y-65966112D01*
X103629070Y-65966111D01*
X103633314Y-65964769D01*
X103637325Y-65962843D01*
X103637330Y-65962841D01*
X103884678Y-65844066D01*
X103884679Y-65844065D01*
X103888697Y-65842136D01*
X103897912Y-65835979D01*
X104120545Y-65687221D01*
X104120549Y-65687218D01*
X104124253Y-65684743D01*
X104335281Y-65495730D01*
X104506211Y-65292385D01*
X104514711Y-65282273D01*
X104514712Y-65282271D01*
X104517573Y-65278868D01*
X104519928Y-65275091D01*
X104521853Y-65272442D01*
X104578074Y-65229087D01*
X104623791Y-65220500D01*
X109194730Y-65220500D01*
X109205647Y-65221422D01*
X109205669Y-65221129D01*
X109211646Y-65221568D01*
X109217563Y-65222574D01*
X109311244Y-65220530D01*
X109313993Y-65220500D01*
X109353423Y-65220500D01*
X109356399Y-65220216D01*
X109356423Y-65220215D01*
X109360927Y-65219785D01*
X109370141Y-65219245D01*
X109392056Y-65218767D01*
X109425330Y-65218041D01*
X109425332Y-65218041D01*
X109431325Y-65217910D01*
X109464510Y-65210765D01*
X109479056Y-65208514D01*
X109506871Y-65205860D01*
X109506872Y-65205860D01*
X109512845Y-65205290D01*
X109523493Y-65202166D01*
X109571576Y-65188061D01*
X109580524Y-65185789D01*
X109634477Y-65174173D01*
X109634489Y-65174169D01*
X109640347Y-65172908D01*
X109645863Y-65170561D01*
X109645866Y-65170560D01*
X109671574Y-65159621D01*
X109685437Y-65154658D01*
X109712251Y-65146791D01*
X109712253Y-65146790D01*
X109718011Y-65145101D01*
X109723340Y-65142357D01*
X109723346Y-65142354D01*
X109772420Y-65117079D01*
X109780779Y-65113154D01*
X109831574Y-65091541D01*
X109831577Y-65091539D01*
X109837089Y-65089194D01*
X109842064Y-65085845D01*
X109865250Y-65070236D01*
X109877923Y-65062741D01*
X109893727Y-65054601D01*
X109908093Y-65047202D01*
X109912801Y-65043504D01*
X109912804Y-65043502D01*
X109956215Y-65009402D01*
X109963681Y-65003968D01*
X110010683Y-64972324D01*
X110010685Y-64972323D01*
X110014451Y-64969787D01*
X110018621Y-64966005D01*
X110039503Y-64945123D01*
X110050765Y-64935132D01*
X110071517Y-64918831D01*
X110076234Y-64915126D01*
X110080166Y-64910595D01*
X110080171Y-64910590D01*
X110117509Y-64867562D01*
X110123579Y-64861047D01*
X118247221Y-56737405D01*
X118309533Y-56703379D01*
X118336316Y-56700500D01*
X123379603Y-56700500D01*
X123447724Y-56720502D01*
X123494217Y-56774158D01*
X123504321Y-56844432D01*
X123474827Y-56909012D01*
X123432853Y-56940695D01*
X123348238Y-56980151D01*
X123348233Y-56980154D01*
X123343251Y-56982477D01*
X123254992Y-57044277D01*
X123160211Y-57110643D01*
X123160208Y-57110645D01*
X123155700Y-57113802D01*
X122993802Y-57275700D01*
X122990645Y-57280208D01*
X122990643Y-57280211D01*
X122939255Y-57353601D01*
X122862477Y-57463251D01*
X122860154Y-57468233D01*
X122860151Y-57468238D01*
X122810695Y-57574298D01*
X122765716Y-57670757D01*
X122764294Y-57676065D01*
X122764293Y-57676067D01*
X122731488Y-57798495D01*
X122706457Y-57891913D01*
X122686502Y-58120000D01*
X122706457Y-58348087D01*
X122707881Y-58353400D01*
X122707881Y-58353402D01*
X122762232Y-58556239D01*
X122765716Y-58569243D01*
X122768039Y-58574224D01*
X122768039Y-58574225D01*
X122860151Y-58771762D01*
X122860154Y-58771767D01*
X122862477Y-58776749D01*
X122993802Y-58964300D01*
X123155700Y-59126198D01*
X123160208Y-59129355D01*
X123160211Y-59129357D01*
X123238389Y-59184098D01*
X123343251Y-59257523D01*
X123348233Y-59259846D01*
X123348238Y-59259849D01*
X123514124Y-59337202D01*
X123550757Y-59354284D01*
X123556065Y-59355706D01*
X123556067Y-59355707D01*
X123766598Y-59412119D01*
X123766600Y-59412119D01*
X123771913Y-59413543D01*
X124000000Y-59433498D01*
X124228087Y-59413543D01*
X124233400Y-59412119D01*
X124233402Y-59412119D01*
X124443933Y-59355707D01*
X124443935Y-59355706D01*
X124449243Y-59354284D01*
X124485876Y-59337202D01*
X124651762Y-59259849D01*
X124651767Y-59259846D01*
X124656749Y-59257523D01*
X124761611Y-59184098D01*
X124839789Y-59129357D01*
X124839792Y-59129355D01*
X124844300Y-59126198D01*
X125006198Y-58964300D01*
X125137523Y-58776749D01*
X125139847Y-58771764D01*
X125139851Y-58771758D01*
X125189305Y-58665702D01*
X125236222Y-58612416D01*
X125304499Y-58592955D01*
X125372459Y-58613497D01*
X125418525Y-58667519D01*
X125429500Y-58718951D01*
X125429500Y-63044730D01*
X125428578Y-63055647D01*
X125428871Y-63055669D01*
X125428432Y-63061646D01*
X125427426Y-63067563D01*
X125427557Y-63073563D01*
X125429470Y-63161244D01*
X125429500Y-63163993D01*
X125429500Y-63203423D01*
X125429784Y-63206399D01*
X125429785Y-63206423D01*
X125430215Y-63210927D01*
X125430755Y-63220141D01*
X125432090Y-63281325D01*
X125439234Y-63314505D01*
X125441486Y-63329056D01*
X125444710Y-63362845D01*
X125446399Y-63368602D01*
X125461939Y-63421576D01*
X125464211Y-63430524D01*
X125475827Y-63484477D01*
X125475831Y-63484489D01*
X125477092Y-63490347D01*
X125479439Y-63495863D01*
X125479440Y-63495866D01*
X125490379Y-63521574D01*
X125495342Y-63535437D01*
X125497746Y-63543630D01*
X125504899Y-63568011D01*
X125507643Y-63573340D01*
X125507646Y-63573346D01*
X125532921Y-63622420D01*
X125536846Y-63630779D01*
X125554282Y-63671756D01*
X125560806Y-63687089D01*
X125564154Y-63692062D01*
X125564155Y-63692064D01*
X125579764Y-63715250D01*
X125587259Y-63727923D01*
X125602798Y-63758093D01*
X125639812Y-63805214D01*
X125640598Y-63806215D01*
X125646032Y-63813681D01*
X125650673Y-63820574D01*
X125680213Y-63864451D01*
X125683995Y-63868621D01*
X125704877Y-63889503D01*
X125714867Y-63900764D01*
X125734874Y-63926234D01*
X125739405Y-63930166D01*
X125739410Y-63930171D01*
X125782438Y-63967509D01*
X125788953Y-63973579D01*
X126179780Y-64364406D01*
X126213806Y-64426718D01*
X126208741Y-64497533D01*
X126166194Y-64554369D01*
X126099674Y-64579180D01*
X126090685Y-64579501D01*
X117805269Y-64579501D01*
X117794352Y-64578579D01*
X117794330Y-64578872D01*
X117788353Y-64578433D01*
X117782436Y-64577427D01*
X117691184Y-64579418D01*
X117688755Y-64579471D01*
X117686006Y-64579501D01*
X117646576Y-64579501D01*
X117643600Y-64579785D01*
X117643576Y-64579786D01*
X117639072Y-64580216D01*
X117629858Y-64580756D01*
X117607943Y-64581234D01*
X117574669Y-64581960D01*
X117574667Y-64581960D01*
X117568674Y-64582091D01*
X117535489Y-64589236D01*
X117520943Y-64591487D01*
X117493128Y-64594141D01*
X117493127Y-64594141D01*
X117487154Y-64594711D01*
X117481396Y-64596400D01*
X117481397Y-64596400D01*
X117428423Y-64611940D01*
X117419475Y-64614212D01*
X117365522Y-64625828D01*
X117365510Y-64625832D01*
X117359652Y-64627093D01*
X117354136Y-64629440D01*
X117354133Y-64629441D01*
X117328425Y-64640380D01*
X117314562Y-64645343D01*
X117287748Y-64653210D01*
X117287746Y-64653211D01*
X117281988Y-64654900D01*
X117276659Y-64657644D01*
X117276653Y-64657647D01*
X117227579Y-64682922D01*
X117219220Y-64686847D01*
X117192623Y-64698164D01*
X117162910Y-64710807D01*
X117157938Y-64714155D01*
X117157937Y-64714155D01*
X117134751Y-64729765D01*
X117122075Y-64737261D01*
X117097237Y-64750053D01*
X117097234Y-64750055D01*
X117091906Y-64752799D01*
X117043779Y-64790603D01*
X117036316Y-64796035D01*
X117029793Y-64800427D01*
X116989314Y-64827679D01*
X116989309Y-64827683D01*
X116985548Y-64830215D01*
X116981378Y-64833996D01*
X116960496Y-64854878D01*
X116949235Y-64864868D01*
X116923765Y-64884875D01*
X116919833Y-64889406D01*
X116919828Y-64889411D01*
X116882490Y-64932439D01*
X116876420Y-64938954D01*
X111482125Y-70333249D01*
X111473749Y-70340321D01*
X111473941Y-70340543D01*
X111469405Y-70344458D01*
X111464512Y-70347929D01*
X111460366Y-70352260D01*
X111399686Y-70415647D01*
X111397763Y-70417611D01*
X111369911Y-70445463D01*
X111368000Y-70447777D01*
X111367999Y-70447778D01*
X111365103Y-70451284D01*
X111358975Y-70458173D01*
X111358957Y-70458192D01*
X111316658Y-70502379D01*
X111298245Y-70530897D01*
X111289553Y-70542772D01*
X111267938Y-70568946D01*
X111265063Y-70574209D01*
X111238591Y-70622660D01*
X111233872Y-70630592D01*
X111200678Y-70682001D01*
X111198440Y-70687555D01*
X111198436Y-70687562D01*
X111187989Y-70713485D01*
X111181701Y-70726788D01*
X111165424Y-70756580D01*
X111163594Y-70762297D01*
X111146766Y-70814868D01*
X111143638Y-70823534D01*
X111120755Y-70880313D01*
X111116494Y-70902135D01*
X111114250Y-70913624D01*
X111110587Y-70927889D01*
X111102070Y-70954495D01*
X111102069Y-70954501D01*
X111100240Y-70960214D01*
X111099525Y-70966169D01*
X111092941Y-71020979D01*
X111091505Y-71030096D01*
X111079775Y-71090161D01*
X111079500Y-71095784D01*
X111079500Y-71125322D01*
X111078601Y-71140349D01*
X111074739Y-71172499D01*
X111075162Y-71178474D01*
X111075162Y-71178478D01*
X111079185Y-71235292D01*
X111079500Y-71244191D01*
X111079500Y-77276972D01*
X111059498Y-77345093D01*
X111026758Y-77379487D01*
X110921576Y-77454651D01*
X110918349Y-77457729D01*
X110918347Y-77457731D01*
X110720056Y-77646891D01*
X110716588Y-77650199D01*
X110541199Y-77872680D01*
X110510612Y-77925340D01*
X110401141Y-78113807D01*
X110401138Y-78113813D01*
X110398907Y-78117654D01*
X110397237Y-78121777D01*
X110314368Y-78326372D01*
X110292552Y-78380232D01*
X110291481Y-78384545D01*
X110291479Y-78384550D01*
X110225328Y-78650856D01*
X110224255Y-78655177D01*
X110223801Y-78659605D01*
X110223801Y-78659607D01*
X110196872Y-78922438D01*
X110195380Y-78937002D01*
X110195555Y-78941454D01*
X110204965Y-79180954D01*
X110206502Y-79220084D01*
X110207302Y-79224464D01*
X110256112Y-79491720D01*
X110257400Y-79498775D01*
X110347058Y-79767514D01*
X110349050Y-79771501D01*
X110349051Y-79771503D01*
X110453579Y-79980696D01*
X110473687Y-80020939D01*
X110634761Y-80253993D01*
X110689011Y-80312680D01*
X110806349Y-80439616D01*
X110827065Y-80462027D01*
X110830519Y-80464839D01*
X111043307Y-80638075D01*
X111043311Y-80638078D01*
X111046764Y-80640889D01*
X111050586Y-80643190D01*
X111254047Y-80765684D01*
X111289472Y-80787012D01*
X111293567Y-80788746D01*
X111293569Y-80788747D01*
X111546247Y-80895742D01*
X111546254Y-80895744D01*
X111550348Y-80897478D01*
X111609093Y-80913054D01*
X111819889Y-80968946D01*
X111819893Y-80968947D01*
X111824186Y-80970085D01*
X111828595Y-80970607D01*
X111828601Y-80970608D01*
X111985953Y-80989232D01*
X112105523Y-81003384D01*
X112388745Y-80996709D01*
X112393143Y-80995977D01*
X112663810Y-80950926D01*
X112663814Y-80950925D01*
X112668200Y-80950195D01*
X112672441Y-80948854D01*
X112672444Y-80948853D01*
X112934068Y-80866112D01*
X112934070Y-80866111D01*
X112938314Y-80864769D01*
X112942325Y-80862843D01*
X112942330Y-80862841D01*
X113189678Y-80744066D01*
X113189679Y-80744065D01*
X113193697Y-80742136D01*
X113200342Y-80737696D01*
X113425545Y-80587221D01*
X113425549Y-80587218D01*
X113429253Y-80584743D01*
X113640281Y-80395730D01*
X113822573Y-80178868D01*
X113972489Y-79938485D01*
X114087040Y-79679376D01*
X114163939Y-79406712D01*
X114195784Y-79169621D01*
X114201225Y-79129115D01*
X114201226Y-79129107D01*
X114201652Y-79125933D01*
X114205610Y-79000000D01*
X114185601Y-78717407D01*
X114180875Y-78695453D01*
X114126911Y-78444800D01*
X114126911Y-78444798D01*
X114125975Y-78440453D01*
X114032109Y-78186018D01*
X114029461Y-78178840D01*
X114027920Y-78174663D01*
X114023789Y-78167006D01*
X113895506Y-77929256D01*
X113893393Y-77925340D01*
X113725078Y-77697460D01*
X113712497Y-77684679D01*
X113675311Y-77646905D01*
X115199500Y-77646905D01*
X115199501Y-79003222D01*
X115199501Y-80355992D01*
X115199764Y-80358850D01*
X115199764Y-80358859D01*
X115202839Y-80392324D01*
X115206171Y-80428594D01*
X115208170Y-80434972D01*
X115208170Y-80434973D01*
X115254174Y-80581769D01*
X115256873Y-80590383D01*
X115344703Y-80735408D01*
X115464592Y-80855297D01*
X115609617Y-80943127D01*
X115616864Y-80945398D01*
X115616866Y-80945399D01*
X115660347Y-80959025D01*
X115771406Y-80993829D01*
X115844007Y-81000500D01*
X115846905Y-81000500D01*
X117203518Y-81000499D01*
X118555992Y-81000499D01*
X118558850Y-81000236D01*
X118558859Y-81000236D01*
X118594243Y-80996985D01*
X118628594Y-80993829D01*
X118634979Y-80991828D01*
X118783134Y-80945399D01*
X118783136Y-80945398D01*
X118790383Y-80943127D01*
X118935408Y-80855297D01*
X119055297Y-80735408D01*
X119143127Y-80590383D01*
X119145827Y-80581769D01*
X119165288Y-80519669D01*
X126167001Y-80519669D01*
X126167371Y-80526490D01*
X126172895Y-80577352D01*
X126176521Y-80592604D01*
X126221676Y-80713054D01*
X126230214Y-80728649D01*
X126306715Y-80830724D01*
X126319276Y-80843285D01*
X126421351Y-80919786D01*
X126436946Y-80928324D01*
X126557394Y-80973478D01*
X126572649Y-80977105D01*
X126623514Y-80982631D01*
X126630328Y-80983000D01*
X127252885Y-80983000D01*
X127268124Y-80978525D01*
X127269329Y-80977135D01*
X127271000Y-80969452D01*
X127271000Y-79897115D01*
X127266525Y-79881876D01*
X127265135Y-79880671D01*
X127257452Y-79879000D01*
X126185116Y-79879000D01*
X126169877Y-79883475D01*
X126168672Y-79884865D01*
X126167001Y-79892548D01*
X126167001Y-80519669D01*
X119165288Y-80519669D01*
X119182470Y-80464839D01*
X119193829Y-80428594D01*
X119200500Y-80355993D01*
X119200500Y-79352885D01*
X126167000Y-79352885D01*
X126171475Y-79368124D01*
X126172865Y-79369329D01*
X126180548Y-79371000D01*
X127252885Y-79371000D01*
X127268124Y-79366525D01*
X127269329Y-79365135D01*
X127271000Y-79357452D01*
X127271000Y-78285116D01*
X127266525Y-78269877D01*
X127265135Y-78268672D01*
X127257452Y-78267001D01*
X126630331Y-78267001D01*
X126623510Y-78267371D01*
X126572648Y-78272895D01*
X126557396Y-78276521D01*
X126436946Y-78321676D01*
X126421351Y-78330214D01*
X126319276Y-78406715D01*
X126306715Y-78419276D01*
X126230214Y-78521351D01*
X126221676Y-78536946D01*
X126176522Y-78657394D01*
X126172895Y-78672649D01*
X126167369Y-78723514D01*
X126167000Y-78730328D01*
X126167000Y-79352885D01*
X119200500Y-79352885D01*
X119200500Y-79000000D01*
X119200499Y-77646891D01*
X119200499Y-77644008D01*
X119200234Y-77641116D01*
X119195525Y-77589866D01*
X119193829Y-77571406D01*
X119170677Y-77497529D01*
X119145399Y-77416866D01*
X119145398Y-77416864D01*
X119143127Y-77409617D01*
X119055297Y-77264592D01*
X118935408Y-77144703D01*
X118790383Y-77056873D01*
X118783136Y-77054602D01*
X118783134Y-77054601D01*
X118686424Y-77024294D01*
X118628594Y-77006171D01*
X118555993Y-76999500D01*
X118553095Y-76999500D01*
X117196482Y-76999501D01*
X115844008Y-76999501D01*
X115841150Y-76999764D01*
X115841141Y-76999764D01*
X115805757Y-77003015D01*
X115771406Y-77006171D01*
X115765028Y-77008170D01*
X115765027Y-77008170D01*
X115616866Y-77054601D01*
X115616864Y-77054602D01*
X115609617Y-77056873D01*
X115464592Y-77144703D01*
X115344703Y-77264592D01*
X115256873Y-77409617D01*
X115254602Y-77416864D01*
X115254601Y-77416866D01*
X115247185Y-77440532D01*
X115206171Y-77571406D01*
X115199500Y-77644007D01*
X115199500Y-77646905D01*
X113675311Y-77646905D01*
X113607547Y-77578069D01*
X113526334Y-77495570D01*
X113370057Y-77376303D01*
X113328041Y-77319076D01*
X113320500Y-77276141D01*
X113320500Y-71716316D01*
X113334647Y-71668134D01*
X125241500Y-71668134D01*
X125248255Y-71730316D01*
X125299385Y-71866705D01*
X125386739Y-71983261D01*
X125503295Y-72070615D01*
X125639684Y-72121745D01*
X125701866Y-72128500D01*
X127398134Y-72128500D01*
X127460316Y-72121745D01*
X127596705Y-72070615D01*
X127713261Y-71983261D01*
X127800615Y-71866705D01*
X127851745Y-71730316D01*
X127852917Y-71719526D01*
X127853803Y-71717394D01*
X127854425Y-71714778D01*
X127854848Y-71714879D01*
X127880155Y-71653965D01*
X127938517Y-71613537D01*
X128009471Y-71611078D01*
X128070490Y-71647371D01*
X128077489Y-71656031D01*
X128080643Y-71659789D01*
X128083802Y-71664300D01*
X128245700Y-71826198D01*
X128250208Y-71829355D01*
X128250211Y-71829357D01*
X128291542Y-71858297D01*
X128433251Y-71957523D01*
X128438233Y-71959846D01*
X128438238Y-71959849D01*
X128634765Y-72051490D01*
X128640757Y-72054284D01*
X128646065Y-72055706D01*
X128646067Y-72055707D01*
X128856598Y-72112119D01*
X128856600Y-72112119D01*
X128861913Y-72113543D01*
X129090000Y-72133498D01*
X129318087Y-72113543D01*
X129323400Y-72112119D01*
X129323402Y-72112119D01*
X129533933Y-72055707D01*
X129533935Y-72055706D01*
X129539243Y-72054284D01*
X129545235Y-72051490D01*
X129741762Y-71959849D01*
X129741767Y-71959846D01*
X129746749Y-71957523D01*
X129888458Y-71858297D01*
X129929789Y-71829357D01*
X129929792Y-71829355D01*
X129934300Y-71826198D01*
X130096198Y-71664300D01*
X130227523Y-71476749D01*
X130229846Y-71471767D01*
X130229849Y-71471762D01*
X130245805Y-71437543D01*
X130292722Y-71384258D01*
X130360999Y-71364797D01*
X130428959Y-71385339D01*
X130474195Y-71437543D01*
X130490151Y-71471762D01*
X130490154Y-71471767D01*
X130492477Y-71476749D01*
X130623802Y-71664300D01*
X130785700Y-71826198D01*
X130790208Y-71829355D01*
X130790211Y-71829357D01*
X130831542Y-71858297D01*
X130973251Y-71957523D01*
X130978233Y-71959846D01*
X130978238Y-71959849D01*
X131174765Y-72051490D01*
X131180757Y-72054284D01*
X131186065Y-72055706D01*
X131186067Y-72055707D01*
X131396598Y-72112119D01*
X131396600Y-72112119D01*
X131401913Y-72113543D01*
X131630000Y-72133498D01*
X131858087Y-72113543D01*
X131863400Y-72112119D01*
X131863402Y-72112119D01*
X132073933Y-72055707D01*
X132073935Y-72055706D01*
X132079243Y-72054284D01*
X132085235Y-72051490D01*
X132281762Y-71959849D01*
X132281767Y-71959846D01*
X132286749Y-71957523D01*
X132428458Y-71858297D01*
X132469789Y-71829357D01*
X132469792Y-71829355D01*
X132474300Y-71826198D01*
X132636198Y-71664300D01*
X132767523Y-71476749D01*
X132769846Y-71471767D01*
X132769849Y-71471762D01*
X132786081Y-71436951D01*
X132832998Y-71383666D01*
X132901275Y-71364205D01*
X132969235Y-71384747D01*
X133014471Y-71436951D01*
X133030586Y-71471511D01*
X133036069Y-71481007D01*
X133161028Y-71659467D01*
X133168084Y-71667875D01*
X133322125Y-71821916D01*
X133330533Y-71828972D01*
X133508993Y-71953931D01*
X133518489Y-71959414D01*
X133715947Y-72051490D01*
X133726239Y-72055236D01*
X133898503Y-72101394D01*
X133912599Y-72101058D01*
X133916000Y-72093116D01*
X133916000Y-69552033D01*
X133912027Y-69538502D01*
X133903478Y-69537273D01*
X133726239Y-69584764D01*
X133715947Y-69588510D01*
X133518489Y-69680586D01*
X133508993Y-69686069D01*
X133330533Y-69811028D01*
X133322125Y-69818084D01*
X133168084Y-69972125D01*
X133161028Y-69980533D01*
X133036069Y-70158993D01*
X133030586Y-70168489D01*
X133014471Y-70203049D01*
X132967554Y-70256334D01*
X132899277Y-70275795D01*
X132831317Y-70255253D01*
X132786081Y-70203049D01*
X132769849Y-70168238D01*
X132769846Y-70168233D01*
X132767523Y-70163251D01*
X132636198Y-69975700D01*
X132474300Y-69813802D01*
X132469792Y-69810645D01*
X132469789Y-69810643D01*
X132356221Y-69731122D01*
X132286749Y-69682477D01*
X132281767Y-69680154D01*
X132281762Y-69680151D01*
X132084225Y-69588039D01*
X132084220Y-69588037D01*
X132079243Y-69585716D01*
X132073935Y-69584294D01*
X132073933Y-69584293D01*
X131863402Y-69527881D01*
X131863400Y-69527881D01*
X131858087Y-69526457D01*
X131630000Y-69506502D01*
X131401913Y-69526457D01*
X131396600Y-69527881D01*
X131396598Y-69527881D01*
X131186067Y-69584293D01*
X131186065Y-69584294D01*
X131180757Y-69585716D01*
X131175780Y-69588037D01*
X131175775Y-69588039D01*
X130978238Y-69680151D01*
X130978233Y-69680154D01*
X130973251Y-69682477D01*
X130903779Y-69731122D01*
X130790211Y-69810643D01*
X130790208Y-69810645D01*
X130785700Y-69813802D01*
X130623802Y-69975700D01*
X130492477Y-70163251D01*
X130490154Y-70168233D01*
X130490151Y-70168238D01*
X130474195Y-70202457D01*
X130427278Y-70255742D01*
X130359001Y-70275203D01*
X130291041Y-70254661D01*
X130245805Y-70202457D01*
X130229849Y-70168238D01*
X130229846Y-70168233D01*
X130227523Y-70163251D01*
X130096198Y-69975700D01*
X129934300Y-69813802D01*
X129929792Y-69810645D01*
X129929789Y-69810643D01*
X129816221Y-69731122D01*
X129746749Y-69682477D01*
X129741767Y-69680154D01*
X129741762Y-69680151D01*
X129544225Y-69588039D01*
X129544220Y-69588037D01*
X129539243Y-69585716D01*
X129533935Y-69584294D01*
X129533933Y-69584293D01*
X129323402Y-69527881D01*
X129323400Y-69527881D01*
X129318087Y-69526457D01*
X129090000Y-69506502D01*
X128861913Y-69526457D01*
X128856600Y-69527881D01*
X128856598Y-69527881D01*
X128646067Y-69584293D01*
X128646065Y-69584294D01*
X128640757Y-69585716D01*
X128635780Y-69588037D01*
X128635775Y-69588039D01*
X128438238Y-69680151D01*
X128438233Y-69680154D01*
X128433251Y-69682477D01*
X128363779Y-69731122D01*
X128250211Y-69810643D01*
X128250208Y-69810645D01*
X128245700Y-69813802D01*
X128083802Y-69975700D01*
X128080643Y-69980211D01*
X128077108Y-69984424D01*
X128075974Y-69983473D01*
X128025929Y-70023471D01*
X127955310Y-70030776D01*
X127891951Y-69998742D01*
X127855970Y-69937538D01*
X127852918Y-69920483D01*
X127851745Y-69909684D01*
X127800615Y-69773295D01*
X127713261Y-69656739D01*
X127596705Y-69569385D01*
X127460316Y-69518255D01*
X127398134Y-69511500D01*
X125701866Y-69511500D01*
X125639684Y-69518255D01*
X125503295Y-69569385D01*
X125386739Y-69656739D01*
X125299385Y-69773295D01*
X125248255Y-69909684D01*
X125241500Y-69971866D01*
X125241500Y-71668134D01*
X113334647Y-71668134D01*
X113340502Y-71648195D01*
X113357405Y-71627221D01*
X118127221Y-66857406D01*
X118189533Y-66823380D01*
X118216316Y-66820501D01*
X123465382Y-66820501D01*
X123533503Y-66840503D01*
X123579996Y-66894159D01*
X123590100Y-66964433D01*
X123560606Y-67029013D01*
X123518632Y-67060696D01*
X123348238Y-67140151D01*
X123348233Y-67140154D01*
X123343251Y-67142477D01*
X123324894Y-67155331D01*
X123160211Y-67270643D01*
X123160208Y-67270645D01*
X123155700Y-67273802D01*
X122993802Y-67435700D01*
X122862477Y-67623251D01*
X122860154Y-67628233D01*
X122860151Y-67628238D01*
X122771525Y-67818300D01*
X122765716Y-67830757D01*
X122764294Y-67836065D01*
X122764293Y-67836067D01*
X122714537Y-68021757D01*
X122706457Y-68051913D01*
X122686502Y-68280000D01*
X122706457Y-68508087D01*
X122707881Y-68513400D01*
X122707881Y-68513402D01*
X122743743Y-68647238D01*
X122765716Y-68729243D01*
X122768039Y-68734224D01*
X122768039Y-68734225D01*
X122860151Y-68931762D01*
X122860154Y-68931767D01*
X122862477Y-68936749D01*
X122917595Y-69015465D01*
X122976615Y-69099754D01*
X122993802Y-69124300D01*
X123155700Y-69286198D01*
X123160208Y-69289355D01*
X123160211Y-69289357D01*
X123238389Y-69344098D01*
X123343251Y-69417523D01*
X123348233Y-69419846D01*
X123348238Y-69419849D01*
X123545578Y-69511869D01*
X123550757Y-69514284D01*
X123556065Y-69515706D01*
X123556067Y-69515707D01*
X123766598Y-69572119D01*
X123766600Y-69572119D01*
X123771913Y-69573543D01*
X124000000Y-69593498D01*
X124228087Y-69573543D01*
X124233400Y-69572119D01*
X124233402Y-69572119D01*
X124443933Y-69515707D01*
X124443935Y-69515706D01*
X124449243Y-69514284D01*
X124454422Y-69511869D01*
X124651762Y-69419849D01*
X124651767Y-69419846D01*
X124656749Y-69417523D01*
X124761611Y-69344098D01*
X124839789Y-69289357D01*
X124839792Y-69289355D01*
X124844300Y-69286198D01*
X125006198Y-69124300D01*
X125023386Y-69099754D01*
X125082405Y-69015465D01*
X125137523Y-68936749D01*
X125139846Y-68931767D01*
X125139849Y-68931762D01*
X125231961Y-68734225D01*
X125231961Y-68734224D01*
X125234284Y-68729243D01*
X125256258Y-68647238D01*
X125292119Y-68513402D01*
X125292119Y-68513400D01*
X125293543Y-68508087D01*
X125313498Y-68280000D01*
X125293543Y-68051913D01*
X125285463Y-68021757D01*
X125235707Y-67836067D01*
X125235706Y-67836065D01*
X125234284Y-67830757D01*
X125228475Y-67818300D01*
X125139849Y-67628238D01*
X125139846Y-67628233D01*
X125137523Y-67623251D01*
X125006198Y-67435700D01*
X124844300Y-67273802D01*
X124839792Y-67270645D01*
X124839789Y-67270643D01*
X124675106Y-67155331D01*
X124656749Y-67142477D01*
X124651767Y-67140154D01*
X124651762Y-67140151D01*
X124481368Y-67060696D01*
X124428083Y-67013779D01*
X124408622Y-66945502D01*
X124429164Y-66877542D01*
X124483186Y-66831476D01*
X124534618Y-66820501D01*
X125398231Y-66820501D01*
X125466352Y-66840503D01*
X125512845Y-66894159D01*
X125524086Y-66940455D01*
X125525037Y-66960246D01*
X125527909Y-67020041D01*
X125580118Y-67282512D01*
X125581698Y-67286912D01*
X125581698Y-67286913D01*
X125583525Y-67292001D01*
X125670549Y-67534383D01*
X125676980Y-67546351D01*
X125758275Y-67697649D01*
X125797215Y-67770121D01*
X125800010Y-67773864D01*
X125800012Y-67773867D01*
X125938171Y-67958884D01*
X125957335Y-67984547D01*
X125960642Y-67987825D01*
X125960647Y-67987831D01*
X126144074Y-68169663D01*
X126147390Y-68172950D01*
X126151156Y-68175712D01*
X126151158Y-68175713D01*
X126180026Y-68196880D01*
X126363205Y-68331192D01*
X126367340Y-68333368D01*
X126367344Y-68333370D01*
X126496918Y-68401542D01*
X126600039Y-68455797D01*
X126669419Y-68480025D01*
X126848273Y-68542484D01*
X126848279Y-68542486D01*
X126852690Y-68544026D01*
X126857283Y-68544898D01*
X127104477Y-68591830D01*
X127115606Y-68593943D01*
X127239256Y-68598801D01*
X127378345Y-68604266D01*
X127378350Y-68604266D01*
X127383013Y-68604449D01*
X127479984Y-68593829D01*
X127644382Y-68575825D01*
X127644387Y-68575824D01*
X127649035Y-68575315D01*
X127675027Y-68568472D01*
X127903309Y-68508370D01*
X127907829Y-68507180D01*
X128041104Y-68449921D01*
X128149407Y-68403391D01*
X128149410Y-68403389D01*
X128153710Y-68401542D01*
X128157690Y-68399079D01*
X128157694Y-68399077D01*
X128377302Y-68263179D01*
X128377306Y-68263176D01*
X128381275Y-68260720D01*
X128472923Y-68183134D01*
X128581960Y-68090828D01*
X128581961Y-68090827D01*
X128585526Y-68087809D01*
X128701127Y-67955992D01*
X128758894Y-67890122D01*
X128758898Y-67890117D01*
X128761976Y-67886607D01*
X128764506Y-67882674D01*
X128904219Y-67665465D01*
X128904222Y-67665460D01*
X128906747Y-67661534D01*
X129016661Y-67417534D01*
X129046956Y-67310116D01*
X129088032Y-67164473D01*
X129088033Y-67164470D01*
X129089302Y-67159969D01*
X129107103Y-67020041D01*
X129122677Y-66897625D01*
X129122677Y-66897621D01*
X129123075Y-66894495D01*
X129123687Y-66871142D01*
X129125263Y-66810930D01*
X129125549Y-66800000D01*
X129125315Y-66796850D01*
X129106064Y-66537788D01*
X129106063Y-66537784D01*
X129105717Y-66533123D01*
X129046655Y-66272109D01*
X129044962Y-66267755D01*
X128951355Y-66027044D01*
X128951354Y-66027042D01*
X128949662Y-66022691D01*
X128884694Y-65909021D01*
X128868258Y-65839956D01*
X128891771Y-65772966D01*
X128947769Y-65729323D01*
X128994088Y-65720500D01*
X131683684Y-65720500D01*
X131751805Y-65740502D01*
X131772779Y-65757405D01*
X133533249Y-67517875D01*
X133540321Y-67526251D01*
X133540543Y-67526059D01*
X133544458Y-67530595D01*
X133547929Y-67535488D01*
X133552260Y-67539634D01*
X133615647Y-67600314D01*
X133617611Y-67602237D01*
X133645463Y-67630089D01*
X133647777Y-67632000D01*
X133647778Y-67632001D01*
X133651284Y-67634897D01*
X133658173Y-67641025D01*
X133679598Y-67661534D01*
X133702379Y-67683342D01*
X133730897Y-67701755D01*
X133742772Y-67710447D01*
X133768946Y-67732062D01*
X133822662Y-67761410D01*
X133830593Y-67766129D01*
X133882001Y-67799322D01*
X133911162Y-67811074D01*
X133913476Y-67812007D01*
X133926789Y-67818300D01*
X133956581Y-67834577D01*
X134014878Y-67853238D01*
X134023539Y-67856364D01*
X134080313Y-67879245D01*
X134097872Y-67882674D01*
X134113627Y-67885751D01*
X134127882Y-67889411D01*
X134160214Y-67899760D01*
X134166159Y-67900474D01*
X134166172Y-67900477D01*
X134220987Y-67907062D01*
X134230107Y-67908498D01*
X134272950Y-67916864D01*
X134290161Y-67920225D01*
X134295784Y-67920500D01*
X134325314Y-67920500D01*
X134340342Y-67921399D01*
X134366552Y-67924548D01*
X134366556Y-67924548D01*
X134372499Y-67925262D01*
X134378474Y-67924839D01*
X134378478Y-67924839D01*
X134435306Y-67920815D01*
X134444205Y-67920500D01*
X135561977Y-67920500D01*
X135630098Y-67940502D01*
X135676591Y-67994158D01*
X135685524Y-68021757D01*
X135685559Y-68021931D01*
X135686171Y-68028594D01*
X135688172Y-68034978D01*
X135688172Y-68034980D01*
X135732276Y-68175713D01*
X135736873Y-68190383D01*
X135824703Y-68335408D01*
X135944592Y-68455297D01*
X136089617Y-68543127D01*
X136096864Y-68545398D01*
X136096866Y-68545399D01*
X136162106Y-68565844D01*
X136251406Y-68593829D01*
X136324007Y-68600500D01*
X136326905Y-68600500D01*
X137482999Y-68600499D01*
X138635992Y-68600499D01*
X138638850Y-68600236D01*
X138638859Y-68600236D01*
X138674243Y-68596985D01*
X138708594Y-68593829D01*
X138753038Y-68579901D01*
X138863134Y-68545399D01*
X138863136Y-68545398D01*
X138870383Y-68543127D01*
X139015408Y-68455297D01*
X139135297Y-68335408D01*
X139223127Y-68190383D01*
X139227725Y-68175713D01*
X139268187Y-68046598D01*
X139273829Y-68028594D01*
X139280500Y-67955993D01*
X139280499Y-65950593D01*
X139300501Y-65882472D01*
X139354157Y-65835979D01*
X139424431Y-65825875D01*
X139489011Y-65855369D01*
X139495594Y-65861498D01*
X143226343Y-69592247D01*
X143233887Y-69600537D01*
X143238000Y-69607018D01*
X143243777Y-69612443D01*
X143287667Y-69653658D01*
X143290509Y-69656413D01*
X143310231Y-69676135D01*
X143313355Y-69678558D01*
X143313359Y-69678562D01*
X143313424Y-69678612D01*
X143322445Y-69686317D01*
X143354679Y-69716586D01*
X143361626Y-69720405D01*
X143368040Y-69725065D01*
X143365995Y-69727879D01*
X143404931Y-69767011D01*
X143419849Y-69836422D01*
X143394872Y-69902880D01*
X143383288Y-69916214D01*
X143323802Y-69975700D01*
X143192477Y-70163251D01*
X143190154Y-70168233D01*
X143190151Y-70168238D01*
X143174195Y-70202457D01*
X143127278Y-70255742D01*
X143059001Y-70275203D01*
X142991041Y-70254661D01*
X142945805Y-70202457D01*
X142929849Y-70168238D01*
X142929846Y-70168233D01*
X142927523Y-70163251D01*
X142796198Y-69975700D01*
X142634300Y-69813802D01*
X142629792Y-69810645D01*
X142629789Y-69810643D01*
X142516221Y-69731122D01*
X142446749Y-69682477D01*
X142441767Y-69680154D01*
X142441762Y-69680151D01*
X142244225Y-69588039D01*
X142244220Y-69588037D01*
X142239243Y-69585716D01*
X142233935Y-69584294D01*
X142233933Y-69584293D01*
X142023402Y-69527881D01*
X142023400Y-69527881D01*
X142018087Y-69526457D01*
X141790000Y-69506502D01*
X141561913Y-69526457D01*
X141556600Y-69527881D01*
X141556598Y-69527881D01*
X141346067Y-69584293D01*
X141346065Y-69584294D01*
X141340757Y-69585716D01*
X141335780Y-69588037D01*
X141335775Y-69588039D01*
X141138238Y-69680151D01*
X141138233Y-69680154D01*
X141133251Y-69682477D01*
X141063779Y-69731122D01*
X140950211Y-69810643D01*
X140950208Y-69810645D01*
X140945700Y-69813802D01*
X140783802Y-69975700D01*
X140652477Y-70163251D01*
X140650154Y-70168233D01*
X140650151Y-70168238D01*
X140634195Y-70202457D01*
X140587278Y-70255742D01*
X140519001Y-70275203D01*
X140451041Y-70254661D01*
X140405805Y-70202457D01*
X140389849Y-70168238D01*
X140389846Y-70168233D01*
X140387523Y-70163251D01*
X140256198Y-69975700D01*
X140094300Y-69813802D01*
X140089792Y-69810645D01*
X140089789Y-69810643D01*
X139976221Y-69731122D01*
X139906749Y-69682477D01*
X139901767Y-69680154D01*
X139901762Y-69680151D01*
X139704225Y-69588039D01*
X139704220Y-69588037D01*
X139699243Y-69585716D01*
X139693935Y-69584294D01*
X139693933Y-69584293D01*
X139483402Y-69527881D01*
X139483400Y-69527881D01*
X139478087Y-69526457D01*
X139250000Y-69506502D01*
X139021913Y-69526457D01*
X139016600Y-69527881D01*
X139016598Y-69527881D01*
X138806067Y-69584293D01*
X138806065Y-69584294D01*
X138800757Y-69585716D01*
X138795780Y-69588037D01*
X138795775Y-69588039D01*
X138598238Y-69680151D01*
X138598233Y-69680154D01*
X138593251Y-69682477D01*
X138523779Y-69731122D01*
X138410211Y-69810643D01*
X138410208Y-69810645D01*
X138405700Y-69813802D01*
X138243802Y-69975700D01*
X138112477Y-70163251D01*
X138110154Y-70168233D01*
X138110151Y-70168238D01*
X138094195Y-70202457D01*
X138047278Y-70255742D01*
X137979001Y-70275203D01*
X137911041Y-70254661D01*
X137865805Y-70202457D01*
X137849849Y-70168238D01*
X137849846Y-70168233D01*
X137847523Y-70163251D01*
X137716198Y-69975700D01*
X137554300Y-69813802D01*
X137549792Y-69810645D01*
X137549789Y-69810643D01*
X137436221Y-69731122D01*
X137366749Y-69682477D01*
X137361767Y-69680154D01*
X137361762Y-69680151D01*
X137164225Y-69588039D01*
X137164220Y-69588037D01*
X137159243Y-69585716D01*
X137153935Y-69584294D01*
X137153933Y-69584293D01*
X136943402Y-69527881D01*
X136943400Y-69527881D01*
X136938087Y-69526457D01*
X136710000Y-69506502D01*
X136481913Y-69526457D01*
X136476600Y-69527881D01*
X136476598Y-69527881D01*
X136266067Y-69584293D01*
X136266065Y-69584294D01*
X136260757Y-69585716D01*
X136255780Y-69588037D01*
X136255775Y-69588039D01*
X136058238Y-69680151D01*
X136058233Y-69680154D01*
X136053251Y-69682477D01*
X135983779Y-69731122D01*
X135870211Y-69810643D01*
X135870208Y-69810645D01*
X135865700Y-69813802D01*
X135703802Y-69975700D01*
X135572477Y-70163251D01*
X135570154Y-70168233D01*
X135570151Y-70168238D01*
X135553919Y-70203049D01*
X135507002Y-70256334D01*
X135438725Y-70275795D01*
X135370765Y-70255253D01*
X135325529Y-70203049D01*
X135309414Y-70168489D01*
X135303931Y-70158993D01*
X135178972Y-69980533D01*
X135171916Y-69972125D01*
X135017875Y-69818084D01*
X135009467Y-69811028D01*
X134831007Y-69686069D01*
X134821511Y-69680586D01*
X134624053Y-69588510D01*
X134613761Y-69584764D01*
X134441497Y-69538606D01*
X134427401Y-69538942D01*
X134424000Y-69546884D01*
X134424000Y-72087967D01*
X134427973Y-72101498D01*
X134436522Y-72102727D01*
X134613761Y-72055236D01*
X134624053Y-72051490D01*
X134821511Y-71959414D01*
X134831007Y-71953931D01*
X135009467Y-71828972D01*
X135017875Y-71821916D01*
X135171916Y-71667875D01*
X135178972Y-71659467D01*
X135303931Y-71481007D01*
X135309414Y-71471511D01*
X135325529Y-71436951D01*
X135372446Y-71383666D01*
X135440723Y-71364205D01*
X135508683Y-71384747D01*
X135553919Y-71436951D01*
X135570151Y-71471762D01*
X135570154Y-71471767D01*
X135572477Y-71476749D01*
X135703802Y-71664300D01*
X135865700Y-71826198D01*
X135870208Y-71829355D01*
X135870211Y-71829357D01*
X136022771Y-71936181D01*
X136067099Y-71991638D01*
X136076500Y-72039394D01*
X136076500Y-72665406D01*
X136056498Y-72733527D01*
X136039595Y-72754501D01*
X130522345Y-78271750D01*
X130460033Y-78305776D01*
X130411154Y-78306702D01*
X130198373Y-78268800D01*
X130198367Y-78268799D01*
X130193284Y-78267894D01*
X130119452Y-78266992D01*
X129975081Y-78265228D01*
X129975079Y-78265228D01*
X129969911Y-78265165D01*
X129749091Y-78298955D01*
X129536756Y-78368357D01*
X129506443Y-78384137D01*
X129379726Y-78450102D01*
X129338607Y-78471507D01*
X129334474Y-78474610D01*
X129334471Y-78474612D01*
X129164100Y-78602530D01*
X129159965Y-78605635D01*
X129156393Y-78609373D01*
X129078898Y-78690466D01*
X129017374Y-78725895D01*
X128946462Y-78722438D01*
X128888676Y-78681192D01*
X128869823Y-78647644D01*
X128828324Y-78536946D01*
X128819786Y-78521351D01*
X128743285Y-78419276D01*
X128730724Y-78406715D01*
X128628649Y-78330214D01*
X128613054Y-78321676D01*
X128492606Y-78276522D01*
X128477351Y-78272895D01*
X128426486Y-78267369D01*
X128419672Y-78267000D01*
X127797115Y-78267000D01*
X127781876Y-78271475D01*
X127780671Y-78272865D01*
X127779000Y-78280548D01*
X127779000Y-80964884D01*
X127783475Y-80980123D01*
X127784865Y-80981328D01*
X127792548Y-80982999D01*
X128419669Y-80982999D01*
X128426490Y-80982629D01*
X128477352Y-80977105D01*
X128492604Y-80973479D01*
X128613054Y-80928324D01*
X128628649Y-80919786D01*
X128730724Y-80843285D01*
X128743285Y-80830724D01*
X128819786Y-80728649D01*
X128828324Y-80713054D01*
X128869225Y-80603952D01*
X128911867Y-80547188D01*
X128978428Y-80522488D01*
X129047777Y-80537696D01*
X129082444Y-80565684D01*
X129107865Y-80595031D01*
X129107869Y-80595035D01*
X129111250Y-80598938D01*
X129283126Y-80741632D01*
X129476000Y-80854338D01*
X129480825Y-80856180D01*
X129480826Y-80856181D01*
X129553612Y-80883975D01*
X129684692Y-80934030D01*
X129689760Y-80935061D01*
X129689763Y-80935062D01*
X129764145Y-80950195D01*
X129903597Y-80978567D01*
X129908772Y-80978757D01*
X129908774Y-80978757D01*
X130121673Y-80986564D01*
X130121677Y-80986564D01*
X130126837Y-80986753D01*
X130131957Y-80986097D01*
X130131959Y-80986097D01*
X130343288Y-80959025D01*
X130343289Y-80959025D01*
X130348416Y-80958368D01*
X130353366Y-80956883D01*
X130557429Y-80895661D01*
X130557434Y-80895659D01*
X130562384Y-80894174D01*
X130762994Y-80795896D01*
X130944860Y-80666173D01*
X130967924Y-80643190D01*
X131054903Y-80556514D01*
X131103096Y-80508489D01*
X131109093Y-80500144D01*
X131233453Y-80327077D01*
X131234776Y-80328028D01*
X131281645Y-80284857D01*
X131351580Y-80272625D01*
X131417026Y-80300144D01*
X131444875Y-80331994D01*
X131504987Y-80430088D01*
X131651250Y-80598938D01*
X131823126Y-80741632D01*
X132016000Y-80854338D01*
X132020825Y-80856180D01*
X132020826Y-80856181D01*
X132093612Y-80883975D01*
X132224692Y-80934030D01*
X132229760Y-80935061D01*
X132229763Y-80935062D01*
X132304145Y-80950195D01*
X132443597Y-80978567D01*
X132448772Y-80978757D01*
X132448774Y-80978757D01*
X132661673Y-80986564D01*
X132661677Y-80986564D01*
X132666837Y-80986753D01*
X132671957Y-80986097D01*
X132671959Y-80986097D01*
X132883288Y-80959025D01*
X132883289Y-80959025D01*
X132888416Y-80958368D01*
X132893366Y-80956883D01*
X133097429Y-80895661D01*
X133097434Y-80895659D01*
X133102384Y-80894174D01*
X133302994Y-80795896D01*
X133484860Y-80666173D01*
X133507924Y-80643190D01*
X133594903Y-80556514D01*
X133643096Y-80508489D01*
X133649093Y-80500144D01*
X133773453Y-80327077D01*
X133774776Y-80328028D01*
X133821645Y-80284857D01*
X133891580Y-80272625D01*
X133957026Y-80300144D01*
X133984875Y-80331994D01*
X134044987Y-80430088D01*
X134191250Y-80598938D01*
X134363126Y-80741632D01*
X134556000Y-80854338D01*
X134560825Y-80856180D01*
X134560826Y-80856181D01*
X134633612Y-80883975D01*
X134764692Y-80934030D01*
X134769760Y-80935061D01*
X134769763Y-80935062D01*
X134844145Y-80950195D01*
X134983597Y-80978567D01*
X134988772Y-80978757D01*
X134988774Y-80978757D01*
X135201673Y-80986564D01*
X135201677Y-80986564D01*
X135206837Y-80986753D01*
X135211957Y-80986097D01*
X135211959Y-80986097D01*
X135423288Y-80959025D01*
X135423289Y-80959025D01*
X135428416Y-80958368D01*
X135433366Y-80956883D01*
X135637429Y-80895661D01*
X135637434Y-80895659D01*
X135642384Y-80894174D01*
X135842994Y-80795896D01*
X136024860Y-80666173D01*
X136047924Y-80643190D01*
X136134903Y-80556514D01*
X136183096Y-80508489D01*
X136189093Y-80500144D01*
X136313453Y-80327077D01*
X136314776Y-80328028D01*
X136361645Y-80284857D01*
X136431580Y-80272625D01*
X136497026Y-80300144D01*
X136524875Y-80331994D01*
X136584987Y-80430088D01*
X136731250Y-80598938D01*
X136903126Y-80741632D01*
X137096000Y-80854338D01*
X137100825Y-80856180D01*
X137100826Y-80856181D01*
X137173612Y-80883975D01*
X137304692Y-80934030D01*
X137309760Y-80935061D01*
X137309763Y-80935062D01*
X137384145Y-80950195D01*
X137523597Y-80978567D01*
X137528772Y-80978757D01*
X137528774Y-80978757D01*
X137741673Y-80986564D01*
X137741677Y-80986564D01*
X137746837Y-80986753D01*
X137751957Y-80986097D01*
X137751959Y-80986097D01*
X137963288Y-80959025D01*
X137963289Y-80959025D01*
X137968416Y-80958368D01*
X137973366Y-80956883D01*
X138177429Y-80895661D01*
X138177434Y-80895659D01*
X138182384Y-80894174D01*
X138382994Y-80795896D01*
X138489861Y-80719669D01*
X146642001Y-80719669D01*
X146642371Y-80726490D01*
X146647895Y-80777352D01*
X146651521Y-80792604D01*
X146696676Y-80913054D01*
X146705214Y-80928649D01*
X146781715Y-81030724D01*
X146794276Y-81043285D01*
X146896351Y-81119786D01*
X146911946Y-81128324D01*
X147032394Y-81173478D01*
X147047649Y-81177105D01*
X147098514Y-81182631D01*
X147105328Y-81183000D01*
X147727885Y-81183000D01*
X147743124Y-81178525D01*
X147744329Y-81177135D01*
X147746000Y-81169452D01*
X147746000Y-80097115D01*
X147741525Y-80081876D01*
X147740135Y-80080671D01*
X147732452Y-80079000D01*
X146660116Y-80079000D01*
X146644877Y-80083475D01*
X146643672Y-80084865D01*
X146642001Y-80092548D01*
X146642001Y-80719669D01*
X138489861Y-80719669D01*
X138564860Y-80666173D01*
X138587924Y-80643190D01*
X138674903Y-80556514D01*
X138723096Y-80508489D01*
X138729093Y-80500144D01*
X138850435Y-80331277D01*
X138853453Y-80327077D01*
X138860569Y-80312680D01*
X138950136Y-80131453D01*
X138950137Y-80131451D01*
X138952430Y-80126811D01*
X139017370Y-79913069D01*
X139046529Y-79691590D01*
X139046728Y-79683458D01*
X139048074Y-79628365D01*
X139048074Y-79628361D01*
X139048156Y-79625000D01*
X139042227Y-79552885D01*
X146642000Y-79552885D01*
X146646475Y-79568124D01*
X146647865Y-79569329D01*
X146655548Y-79571000D01*
X147727885Y-79571000D01*
X147743124Y-79566525D01*
X147744329Y-79565135D01*
X147746000Y-79557452D01*
X147746000Y-78485116D01*
X147741525Y-78469877D01*
X147740135Y-78468672D01*
X147732452Y-78467001D01*
X147105331Y-78467001D01*
X147098510Y-78467371D01*
X147047648Y-78472895D01*
X147032396Y-78476521D01*
X146911946Y-78521676D01*
X146896351Y-78530214D01*
X146794276Y-78606715D01*
X146781715Y-78619276D01*
X146705214Y-78721351D01*
X146696676Y-78736946D01*
X146651522Y-78857394D01*
X146647895Y-78872649D01*
X146642369Y-78923514D01*
X146642000Y-78930328D01*
X146642000Y-79552885D01*
X139042227Y-79552885D01*
X139029852Y-79402361D01*
X138975431Y-79185702D01*
X138886354Y-78980840D01*
X138800186Y-78847644D01*
X138767822Y-78797617D01*
X138767820Y-78797614D01*
X138765014Y-78793277D01*
X138614670Y-78628051D01*
X138610619Y-78624852D01*
X138610615Y-78624848D01*
X138443414Y-78492800D01*
X138443410Y-78492798D01*
X138439359Y-78489598D01*
X138434340Y-78486827D01*
X138353157Y-78442012D01*
X138243789Y-78381638D01*
X138238920Y-78379914D01*
X138238916Y-78379912D01*
X138038087Y-78308795D01*
X138038083Y-78308794D01*
X138033212Y-78307069D01*
X138028119Y-78306162D01*
X138028116Y-78306161D01*
X137818373Y-78268800D01*
X137818367Y-78268799D01*
X137813284Y-78267894D01*
X137702009Y-78266535D01*
X137634140Y-78245702D01*
X137588306Y-78191483D01*
X137579061Y-78121091D01*
X137609340Y-78056875D01*
X137614455Y-78051449D01*
X142182253Y-73483652D01*
X142190539Y-73476112D01*
X142197018Y-73472000D01*
X142243644Y-73422348D01*
X142246398Y-73419507D01*
X142266135Y-73399770D01*
X142268615Y-73396573D01*
X142276320Y-73387551D01*
X142301159Y-73361100D01*
X142306586Y-73355321D01*
X142310405Y-73348375D01*
X142310407Y-73348372D01*
X142316348Y-73337566D01*
X142327199Y-73321047D01*
X142334758Y-73311301D01*
X142339614Y-73305041D01*
X142342759Y-73297772D01*
X142342762Y-73297768D01*
X142357174Y-73264463D01*
X142362391Y-73253813D01*
X142383695Y-73215060D01*
X142388733Y-73195437D01*
X142395137Y-73176734D01*
X142400033Y-73165420D01*
X142400033Y-73165419D01*
X142403181Y-73158145D01*
X142404420Y-73150322D01*
X142404423Y-73150312D01*
X142410099Y-73114476D01*
X142412505Y-73102856D01*
X142421528Y-73067711D01*
X142421528Y-73067710D01*
X142423500Y-73060030D01*
X142423500Y-73039776D01*
X142425051Y-73020065D01*
X142426980Y-73007886D01*
X142428220Y-73000057D01*
X142424059Y-72956038D01*
X142423500Y-72944181D01*
X142423500Y-72039394D01*
X142443502Y-71971273D01*
X142477229Y-71936181D01*
X142629789Y-71829357D01*
X142629792Y-71829355D01*
X142634300Y-71826198D01*
X142796198Y-71664300D01*
X142927523Y-71476749D01*
X142929846Y-71471767D01*
X142929849Y-71471762D01*
X142945805Y-71437543D01*
X142992722Y-71384258D01*
X143060999Y-71364797D01*
X143128959Y-71385339D01*
X143174195Y-71437543D01*
X143190151Y-71471762D01*
X143190154Y-71471767D01*
X143192477Y-71476749D01*
X143323802Y-71664300D01*
X143485700Y-71826198D01*
X143490208Y-71829355D01*
X143490211Y-71829357D01*
X143531542Y-71858297D01*
X143673251Y-71957523D01*
X143678233Y-71959846D01*
X143678238Y-71959849D01*
X143874765Y-72051490D01*
X143880757Y-72054284D01*
X143886065Y-72055706D01*
X143886067Y-72055707D01*
X144096598Y-72112119D01*
X144096600Y-72112119D01*
X144101913Y-72113543D01*
X144330000Y-72133498D01*
X144558087Y-72113543D01*
X144563400Y-72112119D01*
X144563402Y-72112119D01*
X144773933Y-72055707D01*
X144773935Y-72055706D01*
X144779243Y-72054284D01*
X144784225Y-72051961D01*
X144784230Y-72051959D01*
X144787247Y-72050552D01*
X144788704Y-72050331D01*
X144789398Y-72050078D01*
X144789449Y-72050218D01*
X144857438Y-72039889D01*
X144922252Y-72068867D01*
X144961110Y-72128285D01*
X144966500Y-72164745D01*
X144966500Y-72321233D01*
X144965973Y-72332416D01*
X144964298Y-72339909D01*
X144964547Y-72347835D01*
X144964547Y-72347836D01*
X144966438Y-72407986D01*
X144966500Y-72411945D01*
X144966500Y-72439856D01*
X144966997Y-72443790D01*
X144966997Y-72443791D01*
X144967005Y-72443856D01*
X144967938Y-72455693D01*
X144969327Y-72499889D01*
X144974978Y-72519339D01*
X144978987Y-72538700D01*
X144981526Y-72558797D01*
X144984445Y-72566168D01*
X144984445Y-72566170D01*
X144997804Y-72599912D01*
X145001649Y-72611142D01*
X145011771Y-72645983D01*
X145013982Y-72653593D01*
X145018015Y-72660412D01*
X145018017Y-72660417D01*
X145024293Y-72671028D01*
X145032988Y-72688776D01*
X145040448Y-72707617D01*
X145045110Y-72714033D01*
X145045110Y-72714034D01*
X145066436Y-72743387D01*
X145072952Y-72753307D01*
X145087188Y-72777378D01*
X145095458Y-72791362D01*
X145109779Y-72805683D01*
X145122619Y-72820716D01*
X145134528Y-72837107D01*
X145168605Y-72865298D01*
X145177384Y-72873288D01*
X146096343Y-73792247D01*
X146103887Y-73800537D01*
X146108000Y-73807018D01*
X146113777Y-73812443D01*
X146157667Y-73853658D01*
X146160509Y-73856413D01*
X146180231Y-73876135D01*
X146183355Y-73878558D01*
X146183359Y-73878562D01*
X146183424Y-73878612D01*
X146192445Y-73886317D01*
X146224679Y-73916586D01*
X146231627Y-73920405D01*
X146231629Y-73920407D01*
X146242432Y-73926346D01*
X146258959Y-73937202D01*
X146268698Y-73944757D01*
X146268700Y-73944758D01*
X146274960Y-73949614D01*
X146315540Y-73967174D01*
X146326188Y-73972391D01*
X146350976Y-73986018D01*
X146364940Y-73993695D01*
X146372616Y-73995666D01*
X146372619Y-73995667D01*
X146384562Y-73998733D01*
X146403267Y-74005137D01*
X146421855Y-74013181D01*
X146429678Y-74014420D01*
X146429688Y-74014423D01*
X146465524Y-74020099D01*
X146477144Y-74022505D01*
X146508959Y-74030673D01*
X146519970Y-74033500D01*
X146540224Y-74033500D01*
X146559934Y-74035051D01*
X146579943Y-74038220D01*
X146587835Y-74037474D01*
X146606580Y-74035702D01*
X146623962Y-74034059D01*
X146635819Y-74033500D01*
X155121233Y-74033500D01*
X155132416Y-74034027D01*
X155139909Y-74035702D01*
X155147835Y-74035453D01*
X155147836Y-74035453D01*
X155207986Y-74033562D01*
X155211945Y-74033500D01*
X155239856Y-74033500D01*
X155243791Y-74033003D01*
X155243856Y-74032995D01*
X155255693Y-74032062D01*
X155287951Y-74031048D01*
X155291970Y-74030922D01*
X155299889Y-74030673D01*
X155319343Y-74025021D01*
X155338700Y-74021013D01*
X155350930Y-74019468D01*
X155350931Y-74019468D01*
X155358797Y-74018474D01*
X155366168Y-74015555D01*
X155366170Y-74015555D01*
X155399912Y-74002196D01*
X155411142Y-73998351D01*
X155445983Y-73988229D01*
X155445984Y-73988229D01*
X155453593Y-73986018D01*
X155460412Y-73981985D01*
X155460417Y-73981983D01*
X155471028Y-73975707D01*
X155488776Y-73967012D01*
X155507617Y-73959552D01*
X155543387Y-73933564D01*
X155553307Y-73927048D01*
X155584535Y-73908580D01*
X155584538Y-73908578D01*
X155591362Y-73904542D01*
X155605683Y-73890221D01*
X155620717Y-73877380D01*
X155622431Y-73876135D01*
X155637107Y-73865472D01*
X155665298Y-73831395D01*
X155673288Y-73822616D01*
X156592247Y-72903657D01*
X156600537Y-72896113D01*
X156607018Y-72892000D01*
X156653659Y-72842332D01*
X156656413Y-72839491D01*
X156676135Y-72819769D01*
X156678612Y-72816576D01*
X156686317Y-72807555D01*
X156701523Y-72791362D01*
X156716586Y-72775321D01*
X156720407Y-72768371D01*
X156726346Y-72757568D01*
X156737202Y-72741041D01*
X156744757Y-72731302D01*
X156744758Y-72731300D01*
X156749614Y-72725040D01*
X156767174Y-72684460D01*
X156772391Y-72673812D01*
X156789875Y-72642009D01*
X156789876Y-72642007D01*
X156793695Y-72635060D01*
X156798733Y-72615437D01*
X156805137Y-72596734D01*
X156810033Y-72585420D01*
X156810033Y-72585419D01*
X156813181Y-72578145D01*
X156814420Y-72570322D01*
X156814423Y-72570312D01*
X156820099Y-72534476D01*
X156822505Y-72522856D01*
X156831528Y-72487711D01*
X156831528Y-72487710D01*
X156833500Y-72480030D01*
X156833500Y-72459776D01*
X156835051Y-72440065D01*
X156836980Y-72427886D01*
X156838220Y-72420057D01*
X156834059Y-72376038D01*
X156833500Y-72364181D01*
X156833500Y-72253812D01*
X156853502Y-72185691D01*
X156907158Y-72139198D01*
X156970481Y-72128291D01*
X157024525Y-72133019D01*
X157030000Y-72133498D01*
X157258087Y-72113543D01*
X157263400Y-72112119D01*
X157263402Y-72112119D01*
X157473933Y-72055707D01*
X157473935Y-72055706D01*
X157479243Y-72054284D01*
X157485235Y-72051490D01*
X157681762Y-71959849D01*
X157681767Y-71959846D01*
X157686749Y-71957523D01*
X157828458Y-71858297D01*
X157869789Y-71829357D01*
X157869792Y-71829355D01*
X157874300Y-71826198D01*
X158036198Y-71664300D01*
X158167523Y-71476749D01*
X158169846Y-71471767D01*
X158169849Y-71471762D01*
X158185805Y-71437543D01*
X158232722Y-71384258D01*
X158300999Y-71364797D01*
X158368959Y-71385339D01*
X158414195Y-71437543D01*
X158430151Y-71471762D01*
X158430154Y-71471767D01*
X158432477Y-71476749D01*
X158563802Y-71664300D01*
X158725700Y-71826198D01*
X158730208Y-71829355D01*
X158730211Y-71829357D01*
X158771542Y-71858297D01*
X158913251Y-71957523D01*
X158918233Y-71959846D01*
X158918238Y-71959849D01*
X159114765Y-72051490D01*
X159120757Y-72054284D01*
X159126065Y-72055706D01*
X159126067Y-72055707D01*
X159336598Y-72112119D01*
X159336600Y-72112119D01*
X159341913Y-72113543D01*
X159570000Y-72133498D01*
X159798087Y-72113543D01*
X159803400Y-72112119D01*
X159803402Y-72112119D01*
X160013933Y-72055707D01*
X160013935Y-72055706D01*
X160019243Y-72054284D01*
X160025235Y-72051490D01*
X160221762Y-71959849D01*
X160221767Y-71959846D01*
X160226749Y-71957523D01*
X160368458Y-71858297D01*
X160409789Y-71829357D01*
X160409792Y-71829355D01*
X160414300Y-71826198D01*
X160576198Y-71664300D01*
X160707523Y-71476749D01*
X160709846Y-71471767D01*
X160709849Y-71471762D01*
X160725805Y-71437543D01*
X160772722Y-71384258D01*
X160840999Y-71364797D01*
X160908959Y-71385339D01*
X160954195Y-71437543D01*
X160970151Y-71471762D01*
X160970154Y-71471767D01*
X160972477Y-71476749D01*
X161103802Y-71664300D01*
X161265700Y-71826198D01*
X161270208Y-71829355D01*
X161270211Y-71829357D01*
X161311542Y-71858297D01*
X161453251Y-71957523D01*
X161458233Y-71959846D01*
X161458238Y-71959849D01*
X161654765Y-72051490D01*
X161660757Y-72054284D01*
X161666065Y-72055706D01*
X161666067Y-72055707D01*
X161876598Y-72112119D01*
X161876600Y-72112119D01*
X161881913Y-72113543D01*
X162110000Y-72133498D01*
X162338087Y-72113543D01*
X162343400Y-72112119D01*
X162343402Y-72112119D01*
X162553933Y-72055707D01*
X162553935Y-72055706D01*
X162559243Y-72054284D01*
X162565235Y-72051490D01*
X162761762Y-71959849D01*
X162761767Y-71959846D01*
X162766749Y-71957523D01*
X162908458Y-71858297D01*
X162949789Y-71829357D01*
X162949792Y-71829355D01*
X162954300Y-71826198D01*
X163116198Y-71664300D01*
X163247523Y-71476749D01*
X163249846Y-71471767D01*
X163249849Y-71471762D01*
X163341961Y-71274225D01*
X163341961Y-71274224D01*
X163344284Y-71269243D01*
X163380827Y-71132866D01*
X163402119Y-71053402D01*
X163402119Y-71053400D01*
X163403543Y-71048087D01*
X163423498Y-70820000D01*
X163403543Y-70591913D01*
X163396150Y-70564323D01*
X163345707Y-70376067D01*
X163345706Y-70376065D01*
X163344284Y-70370757D01*
X163333639Y-70347929D01*
X163249849Y-70168238D01*
X163249846Y-70168233D01*
X163247523Y-70163251D01*
X163116198Y-69975700D01*
X162954300Y-69813802D01*
X162949792Y-69810645D01*
X162949789Y-69810643D01*
X162836221Y-69731122D01*
X162766749Y-69682477D01*
X162761767Y-69680154D01*
X162761762Y-69680151D01*
X162564225Y-69588039D01*
X162564220Y-69588037D01*
X162559243Y-69585716D01*
X162553935Y-69584294D01*
X162553933Y-69584293D01*
X162343402Y-69527881D01*
X162343400Y-69527881D01*
X162338087Y-69526457D01*
X162110000Y-69506502D01*
X161881913Y-69526457D01*
X161876600Y-69527881D01*
X161876598Y-69527881D01*
X161666067Y-69584293D01*
X161666065Y-69584294D01*
X161660757Y-69585716D01*
X161655780Y-69588037D01*
X161655775Y-69588039D01*
X161458238Y-69680151D01*
X161458233Y-69680154D01*
X161453251Y-69682477D01*
X161383779Y-69731122D01*
X161270211Y-69810643D01*
X161270208Y-69810645D01*
X161265700Y-69813802D01*
X161103802Y-69975700D01*
X160972477Y-70163251D01*
X160970154Y-70168233D01*
X160970151Y-70168238D01*
X160954195Y-70202457D01*
X160907278Y-70255742D01*
X160839001Y-70275203D01*
X160771041Y-70254661D01*
X160725805Y-70202457D01*
X160709849Y-70168238D01*
X160709846Y-70168233D01*
X160707523Y-70163251D01*
X160576198Y-69975700D01*
X160414300Y-69813802D01*
X160409792Y-69810645D01*
X160409789Y-69810643D01*
X160296221Y-69731122D01*
X160226749Y-69682477D01*
X160221767Y-69680154D01*
X160221762Y-69680151D01*
X160024225Y-69588039D01*
X160024220Y-69588037D01*
X160019243Y-69585716D01*
X160013935Y-69584294D01*
X160013933Y-69584293D01*
X159803402Y-69527881D01*
X159803400Y-69527881D01*
X159798087Y-69526457D01*
X159570000Y-69506502D01*
X159341913Y-69526457D01*
X159336600Y-69527881D01*
X159336598Y-69527881D01*
X159126067Y-69584293D01*
X159126065Y-69584294D01*
X159120757Y-69585716D01*
X159115780Y-69588037D01*
X159115775Y-69588039D01*
X158918238Y-69680151D01*
X158918233Y-69680154D01*
X158913251Y-69682477D01*
X158843779Y-69731122D01*
X158730211Y-69810643D01*
X158730208Y-69810645D01*
X158725700Y-69813802D01*
X158563802Y-69975700D01*
X158432477Y-70163251D01*
X158430154Y-70168233D01*
X158430151Y-70168238D01*
X158414195Y-70202457D01*
X158367278Y-70255742D01*
X158299001Y-70275203D01*
X158231041Y-70254661D01*
X158185805Y-70202457D01*
X158169849Y-70168238D01*
X158169846Y-70168233D01*
X158167523Y-70163251D01*
X158036198Y-69975700D01*
X157874300Y-69813802D01*
X157869792Y-69810645D01*
X157869789Y-69810643D01*
X157756221Y-69731122D01*
X157686749Y-69682477D01*
X157681767Y-69680154D01*
X157681762Y-69680151D01*
X157484225Y-69588039D01*
X157484220Y-69588037D01*
X157479243Y-69585716D01*
X157473935Y-69584294D01*
X157473933Y-69584293D01*
X157263402Y-69527881D01*
X157263400Y-69527881D01*
X157258087Y-69526457D01*
X157030000Y-69506502D01*
X156801913Y-69526457D01*
X156796600Y-69527881D01*
X156796598Y-69527881D01*
X156586067Y-69584293D01*
X156586065Y-69584294D01*
X156580757Y-69585716D01*
X156575780Y-69588037D01*
X156575775Y-69588039D01*
X156378238Y-69680151D01*
X156378233Y-69680154D01*
X156373251Y-69682477D01*
X156303779Y-69731122D01*
X156190211Y-69810643D01*
X156190208Y-69810645D01*
X156185700Y-69813802D01*
X156023802Y-69975700D01*
X155892477Y-70163251D01*
X155890154Y-70168233D01*
X155890151Y-70168238D01*
X155874195Y-70202457D01*
X155827278Y-70255742D01*
X155759001Y-70275203D01*
X155691041Y-70254661D01*
X155645805Y-70202457D01*
X155629849Y-70168238D01*
X155629846Y-70168233D01*
X155627523Y-70163251D01*
X155496198Y-69975700D01*
X155334300Y-69813802D01*
X155329792Y-69810645D01*
X155329789Y-69810643D01*
X155216221Y-69731122D01*
X155146749Y-69682477D01*
X155141767Y-69680154D01*
X155141762Y-69680151D01*
X154944225Y-69588039D01*
X154944220Y-69588037D01*
X154939243Y-69585716D01*
X154933935Y-69584294D01*
X154933933Y-69584293D01*
X154723402Y-69527881D01*
X154723400Y-69527881D01*
X154718087Y-69526457D01*
X154490000Y-69506502D01*
X154261913Y-69526457D01*
X154198458Y-69543460D01*
X154127482Y-69541770D01*
X154076753Y-69510848D01*
X151039000Y-66473095D01*
X151004974Y-66410783D01*
X151010039Y-66339968D01*
X151052586Y-66283132D01*
X151119106Y-66258321D01*
X151128095Y-66258000D01*
X151327885Y-66258000D01*
X151343124Y-66253525D01*
X151344329Y-66252135D01*
X151346000Y-66244452D01*
X151346000Y-66239884D01*
X151854000Y-66239884D01*
X151858475Y-66255123D01*
X151859865Y-66256328D01*
X151867548Y-66257999D01*
X152169669Y-66257999D01*
X152176490Y-66257629D01*
X152227352Y-66252105D01*
X152242604Y-66248479D01*
X152363054Y-66203324D01*
X152378649Y-66194786D01*
X152480724Y-66118285D01*
X152493285Y-66105724D01*
X152569786Y-66003649D01*
X152578324Y-65988054D01*
X152623478Y-65867606D01*
X152627105Y-65852351D01*
X152632631Y-65801486D01*
X152633000Y-65794672D01*
X152633000Y-65272115D01*
X152628525Y-65256876D01*
X152627135Y-65255671D01*
X152619452Y-65254000D01*
X151872115Y-65254000D01*
X151856876Y-65258475D01*
X151855671Y-65259865D01*
X151854000Y-65267548D01*
X151854000Y-66239884D01*
X151346000Y-66239884D01*
X151346000Y-65446242D01*
X151346785Y-65432197D01*
X151352091Y-65384896D01*
X151363500Y-65283183D01*
X151363500Y-64727885D01*
X151854000Y-64727885D01*
X151858475Y-64743124D01*
X151859865Y-64744329D01*
X151867548Y-64746000D01*
X152614884Y-64746000D01*
X152630123Y-64741525D01*
X152631328Y-64740135D01*
X152632999Y-64732452D01*
X152632999Y-64205331D01*
X152632629Y-64198510D01*
X152627105Y-64147648D01*
X152623479Y-64132396D01*
X152578324Y-64011946D01*
X152569786Y-63996351D01*
X152493285Y-63894276D01*
X152480724Y-63881715D01*
X152378649Y-63805214D01*
X152363054Y-63796676D01*
X152242606Y-63751522D01*
X152227351Y-63747895D01*
X152176486Y-63742369D01*
X152169672Y-63742000D01*
X151872115Y-63742000D01*
X151856876Y-63746475D01*
X151855671Y-63747865D01*
X151854000Y-63755548D01*
X151854000Y-64727885D01*
X151363500Y-64727885D01*
X151363500Y-64723996D01*
X151348723Y-64573287D01*
X151348032Y-64570998D01*
X151346000Y-64550276D01*
X151346000Y-63760116D01*
X151341525Y-63744877D01*
X151340135Y-63743672D01*
X151332452Y-63742001D01*
X151030331Y-63742001D01*
X151023510Y-63742371D01*
X150972648Y-63747895D01*
X150957396Y-63751521D01*
X150836944Y-63796677D01*
X150821534Y-63805114D01*
X150752177Y-63820284D01*
X150723764Y-63814960D01*
X150719633Y-63813681D01*
X150538820Y-63757710D01*
X150532695Y-63757066D01*
X150532694Y-63757066D01*
X150343378Y-63737168D01*
X150343377Y-63737168D01*
X150337250Y-63736524D01*
X150258709Y-63743672D01*
X150141543Y-63754335D01*
X150141540Y-63754336D01*
X150135404Y-63754894D01*
X150129498Y-63756632D01*
X150129494Y-63756633D01*
X150030405Y-63785797D01*
X149940971Y-63812119D01*
X149935514Y-63814972D01*
X149935511Y-63814973D01*
X149877966Y-63845057D01*
X149761540Y-63905923D01*
X149761538Y-63905923D01*
X149761355Y-63906019D01*
X149761337Y-63905984D01*
X149695559Y-63925889D01*
X149634591Y-63910729D01*
X149625815Y-63905984D01*
X149462435Y-63817644D01*
X149315100Y-63772036D01*
X149274707Y-63759532D01*
X149274704Y-63759531D01*
X149268820Y-63757710D01*
X149262695Y-63757066D01*
X149262694Y-63757066D01*
X149073378Y-63737168D01*
X149073377Y-63737168D01*
X149067250Y-63736524D01*
X148988709Y-63743672D01*
X148871543Y-63754335D01*
X148871540Y-63754336D01*
X148865404Y-63754894D01*
X148859498Y-63756632D01*
X148859494Y-63756633D01*
X148760405Y-63785797D01*
X148670971Y-63812119D01*
X148665514Y-63814972D01*
X148665511Y-63814973D01*
X148607966Y-63845057D01*
X148491355Y-63906019D01*
X148333399Y-64033019D01*
X148203119Y-64188281D01*
X148200155Y-64193673D01*
X148200152Y-64193677D01*
X148122401Y-64335106D01*
X148105477Y-64365891D01*
X148044193Y-64559084D01*
X148043507Y-64565201D01*
X148043506Y-64565205D01*
X148040007Y-64596400D01*
X148026500Y-64716817D01*
X148026500Y-65276004D01*
X148041277Y-65426713D01*
X148099858Y-65620742D01*
X148195010Y-65799698D01*
X148198904Y-65804472D01*
X148198905Y-65804474D01*
X148224600Y-65835979D01*
X148323110Y-65956763D01*
X148327857Y-65960690D01*
X148327859Y-65960692D01*
X148474528Y-66082027D01*
X148474531Y-66082029D01*
X148479278Y-66085956D01*
X148657565Y-66182356D01*
X148754372Y-66212323D01*
X148845293Y-66240468D01*
X148845296Y-66240469D01*
X148851180Y-66242290D01*
X148857305Y-66242934D01*
X148857306Y-66242934D01*
X149046622Y-66262832D01*
X149046623Y-66262832D01*
X149052750Y-66263476D01*
X149162090Y-66253525D01*
X149248457Y-66245665D01*
X149248460Y-66245664D01*
X149254596Y-66245106D01*
X149260502Y-66243368D01*
X149260506Y-66243367D01*
X149425568Y-66194786D01*
X149449029Y-66187881D01*
X149454489Y-66185027D01*
X149454493Y-66185025D01*
X149512126Y-66154896D01*
X149581762Y-66141062D01*
X149647822Y-66167073D01*
X149689333Y-66224669D01*
X149696500Y-66266558D01*
X149696500Y-66581233D01*
X149695973Y-66592416D01*
X149694298Y-66599909D01*
X149694547Y-66607835D01*
X149694547Y-66607836D01*
X149696438Y-66667986D01*
X149696500Y-66671945D01*
X149696500Y-66699856D01*
X149696997Y-66703790D01*
X149696997Y-66703791D01*
X149697005Y-66703856D01*
X149697938Y-66715693D01*
X149699327Y-66759889D01*
X149704978Y-66779339D01*
X149708987Y-66798700D01*
X149711526Y-66818797D01*
X149714445Y-66826168D01*
X149714445Y-66826170D01*
X149727804Y-66859912D01*
X149731649Y-66871142D01*
X149743982Y-66913593D01*
X149748015Y-66920412D01*
X149748017Y-66920417D01*
X149754293Y-66931028D01*
X149762988Y-66948776D01*
X149770448Y-66967617D01*
X149775110Y-66974033D01*
X149775110Y-66974034D01*
X149796436Y-67003387D01*
X149802952Y-67013307D01*
X149812241Y-67029013D01*
X149825458Y-67051362D01*
X149839779Y-67065683D01*
X149852619Y-67080716D01*
X149864528Y-67097107D01*
X149870634Y-67102158D01*
X149898605Y-67125298D01*
X149907384Y-67133288D01*
X152067507Y-69293411D01*
X152101533Y-69355723D01*
X152096468Y-69426538D01*
X152053921Y-69483374D01*
X151987401Y-69508185D01*
X151967430Y-69508026D01*
X151955486Y-69506981D01*
X151955475Y-69506981D01*
X151950000Y-69506502D01*
X151721913Y-69526457D01*
X151716600Y-69527881D01*
X151716598Y-69527881D01*
X151506067Y-69584293D01*
X151506065Y-69584294D01*
X151500757Y-69585716D01*
X151495780Y-69588037D01*
X151495775Y-69588039D01*
X151298238Y-69680151D01*
X151298233Y-69680154D01*
X151293251Y-69682477D01*
X151223779Y-69731122D01*
X151110211Y-69810643D01*
X151110208Y-69810645D01*
X151105700Y-69813802D01*
X150943802Y-69975700D01*
X150812477Y-70163251D01*
X150810154Y-70168233D01*
X150810151Y-70168238D01*
X150794195Y-70202457D01*
X150747278Y-70255742D01*
X150679001Y-70275203D01*
X150611041Y-70254661D01*
X150565805Y-70202457D01*
X150549849Y-70168238D01*
X150549846Y-70168233D01*
X150547523Y-70163251D01*
X150416198Y-69975700D01*
X150254300Y-69813802D01*
X150249792Y-69810645D01*
X150249789Y-69810643D01*
X150136221Y-69731122D01*
X150066749Y-69682477D01*
X150061767Y-69680154D01*
X150061762Y-69680151D01*
X149864225Y-69588039D01*
X149864220Y-69588037D01*
X149859243Y-69585716D01*
X149853935Y-69584294D01*
X149853933Y-69584293D01*
X149643402Y-69527881D01*
X149643400Y-69527881D01*
X149638087Y-69526457D01*
X149410000Y-69506502D01*
X149181913Y-69526457D01*
X149176600Y-69527881D01*
X149176598Y-69527881D01*
X148966067Y-69584293D01*
X148966065Y-69584294D01*
X148960757Y-69585716D01*
X148955780Y-69588037D01*
X148955775Y-69588039D01*
X148758238Y-69680151D01*
X148758233Y-69680154D01*
X148753251Y-69682477D01*
X148683779Y-69731122D01*
X148570211Y-69810643D01*
X148570208Y-69810645D01*
X148565700Y-69813802D01*
X148403802Y-69975700D01*
X148272477Y-70163251D01*
X148270154Y-70168233D01*
X148270151Y-70168238D01*
X148254195Y-70202457D01*
X148207278Y-70255742D01*
X148139001Y-70275203D01*
X148071041Y-70254661D01*
X148025805Y-70202457D01*
X148009849Y-70168238D01*
X148009846Y-70168233D01*
X148007523Y-70163251D01*
X147876198Y-69975700D01*
X147714300Y-69813802D01*
X147709792Y-69810645D01*
X147709789Y-69810643D01*
X147596221Y-69731122D01*
X147526749Y-69682477D01*
X147521767Y-69680154D01*
X147521762Y-69680151D01*
X147324225Y-69588039D01*
X147324220Y-69588037D01*
X147319243Y-69585716D01*
X147313935Y-69584294D01*
X147313933Y-69584293D01*
X147103402Y-69527881D01*
X147103400Y-69527881D01*
X147098087Y-69526457D01*
X146870000Y-69506502D01*
X146641913Y-69526457D01*
X146636600Y-69527881D01*
X146636598Y-69527881D01*
X146426067Y-69584293D01*
X146426065Y-69584294D01*
X146420757Y-69585716D01*
X146413102Y-69589285D01*
X146411813Y-69589481D01*
X146410602Y-69589922D01*
X146410513Y-69589679D01*
X146342914Y-69599950D01*
X146278099Y-69570974D01*
X146239239Y-69511556D01*
X146234590Y-69465066D01*
X146235702Y-69460092D01*
X146233562Y-69392001D01*
X146233500Y-69388044D01*
X146233500Y-69360144D01*
X146232996Y-69356153D01*
X146232063Y-69344311D01*
X146230923Y-69308036D01*
X146230674Y-69300111D01*
X146228462Y-69292497D01*
X146228461Y-69292492D01*
X146225023Y-69280659D01*
X146221012Y-69261295D01*
X146219467Y-69249064D01*
X146218474Y-69241203D01*
X146215557Y-69233836D01*
X146215556Y-69233831D01*
X146202198Y-69200092D01*
X146198354Y-69188865D01*
X146188230Y-69154022D01*
X146186018Y-69146407D01*
X146175707Y-69128972D01*
X146167012Y-69111224D01*
X146159552Y-69092383D01*
X146133564Y-69056613D01*
X146127048Y-69046693D01*
X146108580Y-69015465D01*
X146108578Y-69015462D01*
X146104542Y-69008638D01*
X146090218Y-68994314D01*
X146077383Y-68979287D01*
X146065472Y-68962893D01*
X146031403Y-68934708D01*
X146022625Y-68926720D01*
X145903648Y-68807744D01*
X145896112Y-68799462D01*
X145892000Y-68792982D01*
X145842347Y-68746355D01*
X145839506Y-68743601D01*
X145819770Y-68723865D01*
X145816573Y-68721385D01*
X145807551Y-68713680D01*
X145781100Y-68688841D01*
X145775321Y-68683414D01*
X145768375Y-68679595D01*
X145768372Y-68679593D01*
X145757566Y-68673652D01*
X145741047Y-68662801D01*
X145740583Y-68662441D01*
X145725041Y-68650386D01*
X145717772Y-68647241D01*
X145717768Y-68647238D01*
X145684463Y-68632826D01*
X145673813Y-68627609D01*
X145635060Y-68606305D01*
X145615437Y-68601267D01*
X145596734Y-68594863D01*
X145585420Y-68589967D01*
X145585419Y-68589967D01*
X145578145Y-68586819D01*
X145570322Y-68585580D01*
X145570312Y-68585577D01*
X145534476Y-68579901D01*
X145522856Y-68577495D01*
X145487711Y-68568472D01*
X145487710Y-68568472D01*
X145480030Y-68566500D01*
X145459776Y-68566500D01*
X145440065Y-68564949D01*
X145427886Y-68563020D01*
X145420057Y-68561780D01*
X145412165Y-68562526D01*
X145376039Y-68565941D01*
X145364181Y-68566500D01*
X144044594Y-68566500D01*
X143976473Y-68546498D01*
X143955499Y-68529595D01*
X139551535Y-64125630D01*
X139517509Y-64063318D01*
X139522574Y-63992502D01*
X139565121Y-63935667D01*
X139631641Y-63910856D01*
X139651613Y-63911015D01*
X139674515Y-63913019D01*
X139674525Y-63913019D01*
X139680000Y-63913498D01*
X139908087Y-63893543D01*
X139913400Y-63892119D01*
X139913402Y-63892119D01*
X140123933Y-63835707D01*
X140123935Y-63835706D01*
X140129243Y-63834284D01*
X140134225Y-63831961D01*
X140331762Y-63739849D01*
X140331767Y-63739846D01*
X140336749Y-63737523D01*
X140481200Y-63636377D01*
X140519789Y-63609357D01*
X140519792Y-63609355D01*
X140524300Y-63606198D01*
X140686198Y-63444300D01*
X140699007Y-63426008D01*
X140774637Y-63317996D01*
X140817523Y-63256749D01*
X140819846Y-63251767D01*
X140819849Y-63251762D01*
X140911961Y-63054225D01*
X140911961Y-63054224D01*
X140914284Y-63049243D01*
X140942861Y-62942595D01*
X140972119Y-62833402D01*
X140972120Y-62833399D01*
X140973543Y-62828087D01*
X140993498Y-62600000D01*
X140973543Y-62371913D01*
X140964392Y-62337761D01*
X140956541Y-62308459D01*
X140958231Y-62237482D01*
X140989153Y-62186753D01*
X141067257Y-62108649D01*
X141075537Y-62101114D01*
X141082017Y-62097001D01*
X141128643Y-62047349D01*
X141131397Y-62044508D01*
X141151134Y-62024771D01*
X141153614Y-62021574D01*
X141161319Y-62012552D01*
X141186158Y-61986101D01*
X141191585Y-61980322D01*
X141195404Y-61973376D01*
X141195406Y-61973373D01*
X141201347Y-61962567D01*
X141212198Y-61946048D01*
X141219757Y-61936302D01*
X141224613Y-61930042D01*
X141227758Y-61922773D01*
X141227761Y-61922769D01*
X141242173Y-61889464D01*
X141247390Y-61878814D01*
X141268694Y-61840061D01*
X141273732Y-61820438D01*
X141280136Y-61801734D01*
X141287612Y-61784458D01*
X141333023Y-61729884D01*
X141403249Y-61708499D01*
X143384585Y-61708499D01*
X143452706Y-61728501D01*
X143499199Y-61782157D01*
X143509303Y-61852431D01*
X143489350Y-61904501D01*
X143379885Y-62068327D01*
X143378061Y-62072026D01*
X143378058Y-62072031D01*
X143351114Y-62126669D01*
X143248941Y-62333855D01*
X143247616Y-62337760D01*
X143247615Y-62337761D01*
X143156739Y-62605475D01*
X143153776Y-62614203D01*
X143152972Y-62618247D01*
X143152970Y-62618253D01*
X143110175Y-62833399D01*
X143096017Y-62904574D01*
X143095748Y-62908679D01*
X143095747Y-62908686D01*
X143086115Y-63055647D01*
X143076654Y-63200000D01*
X143076924Y-63204119D01*
X143093655Y-63459386D01*
X143096017Y-63495426D01*
X143096819Y-63499459D01*
X143096820Y-63499465D01*
X143152970Y-63781747D01*
X143153776Y-63785797D01*
X143155103Y-63789706D01*
X143155104Y-63789710D01*
X143201448Y-63926234D01*
X143248941Y-64066145D01*
X143379885Y-64331673D01*
X143402749Y-64365891D01*
X143535926Y-64565205D01*
X143544367Y-64577838D01*
X143547081Y-64580932D01*
X143547085Y-64580938D01*
X143725522Y-64784405D01*
X143739573Y-64800427D01*
X143742662Y-64803136D01*
X143959062Y-64992915D01*
X143959068Y-64992919D01*
X143962162Y-64995633D01*
X143965588Y-64997922D01*
X143965593Y-64997926D01*
X144111046Y-65095114D01*
X144208327Y-65160115D01*
X144212026Y-65161939D01*
X144212031Y-65161942D01*
X144330836Y-65220530D01*
X144473855Y-65291059D01*
X144477760Y-65292384D01*
X144477761Y-65292385D01*
X144750290Y-65384896D01*
X144750294Y-65384897D01*
X144754203Y-65386224D01*
X144758247Y-65387028D01*
X144758253Y-65387030D01*
X145040535Y-65443180D01*
X145040541Y-65443181D01*
X145044574Y-65443983D01*
X145048679Y-65444252D01*
X145048686Y-65444253D01*
X145335881Y-65463076D01*
X145340000Y-65463346D01*
X145344119Y-65463076D01*
X145631314Y-65444253D01*
X145631321Y-65444252D01*
X145635426Y-65443983D01*
X145639459Y-65443181D01*
X145639465Y-65443180D01*
X145921747Y-65387030D01*
X145921753Y-65387028D01*
X145925797Y-65386224D01*
X145929706Y-65384897D01*
X145929710Y-65384896D01*
X146202239Y-65292385D01*
X146202240Y-65292384D01*
X146206145Y-65291059D01*
X146349164Y-65220530D01*
X146467969Y-65161942D01*
X146467974Y-65161939D01*
X146471673Y-65160115D01*
X146568954Y-65095114D01*
X146714407Y-64997926D01*
X146714412Y-64997922D01*
X146717838Y-64995633D01*
X146720932Y-64992919D01*
X146720938Y-64992915D01*
X146937338Y-64803136D01*
X146940427Y-64800427D01*
X146954478Y-64784405D01*
X147132915Y-64580938D01*
X147132919Y-64580932D01*
X147135633Y-64577838D01*
X147144075Y-64565205D01*
X147277251Y-64365891D01*
X147300115Y-64331673D01*
X147431059Y-64066145D01*
X147478552Y-63926234D01*
X147524896Y-63789710D01*
X147524897Y-63789706D01*
X147526224Y-63785797D01*
X147527030Y-63781747D01*
X147583180Y-63499465D01*
X147583181Y-63499459D01*
X147583983Y-63495426D01*
X147586346Y-63459386D01*
X147603076Y-63204119D01*
X147603346Y-63200000D01*
X147593885Y-63055647D01*
X147584253Y-62908686D01*
X147584252Y-62908679D01*
X147583983Y-62904574D01*
X147569826Y-62833399D01*
X147527030Y-62618253D01*
X147527028Y-62618247D01*
X147526224Y-62614203D01*
X147523262Y-62605475D01*
X147432385Y-62337761D01*
X147432384Y-62337760D01*
X147431059Y-62333855D01*
X147328886Y-62126669D01*
X147301942Y-62072031D01*
X147301939Y-62072026D01*
X147300115Y-62068327D01*
X147190650Y-61904501D01*
X147169435Y-61836748D01*
X147188218Y-61768281D01*
X147241035Y-61720838D01*
X147295415Y-61708499D01*
X154160405Y-61708499D01*
X154228526Y-61728501D01*
X154249500Y-61745404D01*
X158636343Y-66132247D01*
X158643887Y-66140537D01*
X158648000Y-66147018D01*
X158653777Y-66152443D01*
X158697667Y-66193658D01*
X158700509Y-66196413D01*
X158720231Y-66216135D01*
X158723355Y-66218558D01*
X158723359Y-66218562D01*
X158723424Y-66218612D01*
X158732445Y-66226317D01*
X158764679Y-66256586D01*
X158771627Y-66260405D01*
X158771629Y-66260407D01*
X158782432Y-66266346D01*
X158798959Y-66277202D01*
X158808698Y-66284757D01*
X158808700Y-66284758D01*
X158814960Y-66289614D01*
X158855540Y-66307174D01*
X158866188Y-66312391D01*
X158904940Y-66333695D01*
X158912616Y-66335666D01*
X158912619Y-66335667D01*
X158924562Y-66338733D01*
X158943267Y-66345137D01*
X158961855Y-66353181D01*
X158969678Y-66354420D01*
X158969688Y-66354423D01*
X159005524Y-66360099D01*
X159017144Y-66362505D01*
X159052289Y-66371528D01*
X159059970Y-66373500D01*
X159080224Y-66373500D01*
X159099934Y-66375051D01*
X159119943Y-66378220D01*
X159127835Y-66377474D01*
X159163961Y-66374059D01*
X159175819Y-66373500D01*
X160365500Y-66373500D01*
X160433621Y-66393502D01*
X160480114Y-66447158D01*
X160491500Y-66499500D01*
X160491500Y-66740634D01*
X160498255Y-66802816D01*
X160549385Y-66939205D01*
X160636739Y-67055761D01*
X160753295Y-67143115D01*
X160889684Y-67194245D01*
X160951866Y-67201000D01*
X163048134Y-67201000D01*
X163110316Y-67194245D01*
X163246705Y-67143115D01*
X163363261Y-67055761D01*
X163450615Y-66939205D01*
X163501745Y-66802816D01*
X163508500Y-66740634D01*
X163508500Y-64739366D01*
X163501745Y-64677184D01*
X163450615Y-64540795D01*
X163363261Y-64424239D01*
X163356080Y-64418857D01*
X163349731Y-64412508D01*
X163350725Y-64411514D01*
X163313873Y-64362229D01*
X163308847Y-64291411D01*
X163336142Y-64236432D01*
X163362704Y-64205331D01*
X163388940Y-64174613D01*
X163524888Y-63952767D01*
X163534248Y-63930171D01*
X163622563Y-63716957D01*
X163622564Y-63716955D01*
X163624457Y-63712384D01*
X163650886Y-63602301D01*
X163684042Y-63464199D01*
X163684043Y-63464193D01*
X163685197Y-63459386D01*
X163705611Y-63200000D01*
X163685197Y-62940614D01*
X163684043Y-62935807D01*
X163684042Y-62935801D01*
X163639482Y-62750199D01*
X163624457Y-62687616D01*
X163590438Y-62605485D01*
X163526783Y-62451807D01*
X163526781Y-62451803D01*
X163524888Y-62447233D01*
X163388940Y-62225387D01*
X163219962Y-62027538D01*
X163068062Y-61897804D01*
X163029253Y-61838354D01*
X163028745Y-61767359D01*
X163065093Y-61708799D01*
X163115481Y-61662950D01*
X163122506Y-61655417D01*
X163264945Y-61475056D01*
X163270650Y-61466469D01*
X163381714Y-61265278D01*
X163385944Y-61255866D01*
X163462659Y-61039232D01*
X163465293Y-61029261D01*
X163482647Y-60931837D01*
X163481187Y-60918540D01*
X163466630Y-60914000D01*
X160531904Y-60914000D01*
X160518560Y-60917918D01*
X160516573Y-60932194D01*
X160526110Y-60994515D01*
X160528499Y-61004543D01*
X160599898Y-61222988D01*
X160603895Y-61232497D01*
X160710011Y-61436344D01*
X160715505Y-61445069D01*
X160853493Y-61628852D01*
X160860336Y-61636559D01*
X160937671Y-61710462D01*
X160973101Y-61771986D01*
X160969644Y-61842899D01*
X160932452Y-61897365D01*
X160780038Y-62027538D01*
X160611060Y-62225387D01*
X160475112Y-62447233D01*
X160473219Y-62451803D01*
X160473217Y-62451807D01*
X160409562Y-62605485D01*
X160375543Y-62687616D01*
X160360518Y-62750199D01*
X160315958Y-62935801D01*
X160315957Y-62935807D01*
X160314803Y-62940614D01*
X160294389Y-63200000D01*
X160314803Y-63459386D01*
X160315957Y-63464193D01*
X160315958Y-63464199D01*
X160349114Y-63602301D01*
X160375543Y-63712384D01*
X160377436Y-63716955D01*
X160377437Y-63716957D01*
X160465753Y-63930171D01*
X160475112Y-63952767D01*
X160611060Y-64174613D01*
X160637296Y-64205331D01*
X160663858Y-64236432D01*
X160692889Y-64301222D01*
X160682284Y-64371422D01*
X160649541Y-64411780D01*
X160650269Y-64412508D01*
X160643920Y-64418857D01*
X160636739Y-64424239D01*
X160549385Y-64540795D01*
X160498255Y-64677184D01*
X160491500Y-64739366D01*
X160491500Y-64980500D01*
X160471498Y-65048621D01*
X160417842Y-65095114D01*
X160365500Y-65106500D01*
X159454594Y-65106500D01*
X159386473Y-65086498D01*
X159365499Y-65069595D01*
X154978651Y-60682746D01*
X154971111Y-60674460D01*
X154966999Y-60667981D01*
X154917347Y-60621355D01*
X154914506Y-60618601D01*
X154894769Y-60598864D01*
X154891572Y-60596384D01*
X154882550Y-60588679D01*
X154856099Y-60563840D01*
X154850320Y-60558413D01*
X154843374Y-60554594D01*
X154843371Y-60554592D01*
X154832565Y-60548651D01*
X154816046Y-60537800D01*
X154815582Y-60537440D01*
X154800040Y-60525385D01*
X154792771Y-60522240D01*
X154792767Y-60522237D01*
X154759462Y-60507825D01*
X154748812Y-60502608D01*
X154710059Y-60481304D01*
X154690436Y-60476266D01*
X154671733Y-60469862D01*
X154660419Y-60464966D01*
X154660418Y-60464966D01*
X154653144Y-60461818D01*
X154645321Y-60460579D01*
X154645311Y-60460576D01*
X154609475Y-60454900D01*
X154597855Y-60452494D01*
X154562710Y-60443471D01*
X154562709Y-60443471D01*
X154555029Y-60441499D01*
X154534775Y-60441499D01*
X154515064Y-60439948D01*
X154502885Y-60438019D01*
X154495056Y-60436779D01*
X154487164Y-60437525D01*
X154451038Y-60440940D01*
X154439180Y-60441499D01*
X140989593Y-60441499D01*
X140921472Y-60421497D01*
X140900498Y-60404594D01*
X140602296Y-60106392D01*
X140568270Y-60044080D01*
X140573335Y-59973265D01*
X140602296Y-59928202D01*
X140686198Y-59844300D01*
X140721020Y-59794570D01*
X140778688Y-59712211D01*
X140817523Y-59656749D01*
X140819846Y-59651767D01*
X140819849Y-59651762D01*
X140911961Y-59454225D01*
X140911961Y-59454224D01*
X140914284Y-59449243D01*
X140918503Y-59433500D01*
X140972119Y-59233402D01*
X140972119Y-59233400D01*
X140973543Y-59228087D01*
X140993498Y-59000000D01*
X140973543Y-58771913D01*
X140936981Y-58635461D01*
X140915707Y-58556067D01*
X140915706Y-58556065D01*
X140914284Y-58550757D01*
X140844686Y-58401502D01*
X140819849Y-58348238D01*
X140819846Y-58348233D01*
X140817523Y-58343251D01*
X140702494Y-58178973D01*
X140689357Y-58160211D01*
X140689355Y-58160208D01*
X140686198Y-58155700D01*
X140524300Y-57993802D01*
X140519792Y-57990645D01*
X140519789Y-57990643D01*
X140441611Y-57935902D01*
X140336749Y-57862477D01*
X140331767Y-57860154D01*
X140331762Y-57860151D01*
X140134225Y-57768039D01*
X140134224Y-57768039D01*
X140129243Y-57765716D01*
X140123935Y-57764294D01*
X140123933Y-57764293D01*
X139913402Y-57707881D01*
X139913400Y-57707881D01*
X139908087Y-57706457D01*
X139680000Y-57686502D01*
X139451913Y-57706457D01*
X139446600Y-57707881D01*
X139446598Y-57707881D01*
X139236067Y-57764293D01*
X139236065Y-57764294D01*
X139230757Y-57765716D01*
X139225776Y-57768039D01*
X139225775Y-57768039D01*
X139028238Y-57860151D01*
X139028233Y-57860154D01*
X139023251Y-57862477D01*
X138918389Y-57935902D01*
X138840211Y-57990643D01*
X138840208Y-57990645D01*
X138835700Y-57993802D01*
X138673802Y-58155700D01*
X138670645Y-58160208D01*
X138670643Y-58160211D01*
X138657506Y-58178973D01*
X138542477Y-58343251D01*
X138540154Y-58348233D01*
X138540151Y-58348238D01*
X138515314Y-58401502D01*
X138445716Y-58550757D01*
X138444294Y-58556065D01*
X138444293Y-58556067D01*
X138423019Y-58635461D01*
X138386457Y-58771913D01*
X138366502Y-59000000D01*
X138386457Y-59228087D01*
X138387881Y-59233400D01*
X138387881Y-59233402D01*
X138441498Y-59433500D01*
X138445716Y-59449243D01*
X138448039Y-59454224D01*
X138448039Y-59454225D01*
X138540151Y-59651762D01*
X138540154Y-59651767D01*
X138542477Y-59656749D01*
X138581312Y-59712211D01*
X138638981Y-59794570D01*
X138673802Y-59844300D01*
X138835700Y-60006198D01*
X138840208Y-60009355D01*
X138840211Y-60009357D01*
X139004188Y-60124175D01*
X139048516Y-60179632D01*
X139052911Y-60192225D01*
X139054980Y-60199346D01*
X139058987Y-60218700D01*
X139061526Y-60238797D01*
X139064445Y-60246168D01*
X139064445Y-60246170D01*
X139077804Y-60279912D01*
X139081649Y-60291142D01*
X139093982Y-60333593D01*
X139098015Y-60340412D01*
X139098017Y-60340417D01*
X139104293Y-60351028D01*
X139112988Y-60368776D01*
X139120448Y-60387617D01*
X139125110Y-60394033D01*
X139125110Y-60394034D01*
X139146436Y-60423387D01*
X139152952Y-60433307D01*
X139169814Y-60461818D01*
X139175458Y-60471362D01*
X139189779Y-60485683D01*
X139202619Y-60500716D01*
X139214528Y-60517107D01*
X139220632Y-60522157D01*
X139220637Y-60522162D01*
X139248598Y-60545293D01*
X139257379Y-60553283D01*
X139775981Y-61071886D01*
X139810006Y-61134198D01*
X139804941Y-61205014D01*
X139762394Y-61261849D01*
X139695874Y-61286660D01*
X139686885Y-61286981D01*
X139685475Y-61286981D01*
X139680000Y-61286502D01*
X139451913Y-61306457D01*
X139446600Y-61307881D01*
X139446598Y-61307881D01*
X139236067Y-61364293D01*
X139236065Y-61364294D01*
X139230757Y-61365716D01*
X139225776Y-61368039D01*
X139225775Y-61368039D01*
X139028238Y-61460151D01*
X139028233Y-61460154D01*
X139023251Y-61462477D01*
X138918389Y-61535902D01*
X138840211Y-61590643D01*
X138840208Y-61590645D01*
X138835700Y-61593802D01*
X138673802Y-61755700D01*
X138670645Y-61760208D01*
X138670643Y-61760211D01*
X138635196Y-61810835D01*
X138542477Y-61943251D01*
X138540154Y-61948233D01*
X138540151Y-61948238D01*
X138460665Y-62118698D01*
X138445716Y-62150757D01*
X138444294Y-62156065D01*
X138444293Y-62156067D01*
X138396655Y-62333855D01*
X138386457Y-62371913D01*
X138366502Y-62600000D01*
X138366981Y-62605475D01*
X138366981Y-62605485D01*
X138368985Y-62628387D01*
X138354997Y-62697992D01*
X138305599Y-62748985D01*
X138236473Y-62765176D01*
X138169567Y-62741424D01*
X138154370Y-62728465D01*
X137633652Y-62207747D01*
X137626112Y-62199461D01*
X137622000Y-62192982D01*
X137572348Y-62146356D01*
X137569507Y-62143602D01*
X137549770Y-62123865D01*
X137546573Y-62121385D01*
X137537551Y-62113680D01*
X137534776Y-62111074D01*
X137505321Y-62083414D01*
X137498375Y-62079595D01*
X137498372Y-62079593D01*
X137487566Y-62073652D01*
X137471047Y-62062801D01*
X137470583Y-62062441D01*
X137455041Y-62050386D01*
X137447772Y-62047241D01*
X137447768Y-62047238D01*
X137414463Y-62032826D01*
X137403813Y-62027609D01*
X137365060Y-62006305D01*
X137345437Y-62001267D01*
X137326734Y-61994863D01*
X137315420Y-61989967D01*
X137315419Y-61989967D01*
X137308145Y-61986819D01*
X137300322Y-61985580D01*
X137300312Y-61985577D01*
X137264476Y-61979901D01*
X137252856Y-61977495D01*
X137217711Y-61968472D01*
X137217710Y-61968472D01*
X137210030Y-61966500D01*
X137189776Y-61966500D01*
X137170065Y-61964949D01*
X137157886Y-61963020D01*
X137150057Y-61961780D01*
X137142165Y-61962526D01*
X137106039Y-61965941D01*
X137094181Y-61966500D01*
X130739394Y-61966500D01*
X130671273Y-61946498D01*
X130636181Y-61912771D01*
X130529357Y-61760211D01*
X130529355Y-61760208D01*
X130526198Y-61755700D01*
X130364300Y-61593802D01*
X130359792Y-61590645D01*
X130359789Y-61590643D01*
X130281611Y-61535902D01*
X130176749Y-61462477D01*
X130171767Y-61460154D01*
X130171762Y-61460151D01*
X129974225Y-61368039D01*
X129974224Y-61368039D01*
X129969243Y-61365716D01*
X129963935Y-61364294D01*
X129963933Y-61364293D01*
X129753402Y-61307881D01*
X129753400Y-61307881D01*
X129748087Y-61306457D01*
X129520000Y-61286502D01*
X129291913Y-61306457D01*
X129286600Y-61307881D01*
X129286598Y-61307881D01*
X129076067Y-61364293D01*
X129076065Y-61364294D01*
X129070757Y-61365716D01*
X129065776Y-61368039D01*
X129065775Y-61368039D01*
X128868238Y-61460151D01*
X128868233Y-61460154D01*
X128863251Y-61462477D01*
X128758389Y-61535902D01*
X128680211Y-61590643D01*
X128680208Y-61590645D01*
X128675700Y-61593802D01*
X128513802Y-61755700D01*
X128510645Y-61760208D01*
X128510643Y-61760211D01*
X128475196Y-61810835D01*
X128382477Y-61943251D01*
X128380154Y-61948233D01*
X128380151Y-61948238D01*
X128300665Y-62118698D01*
X128285716Y-62150757D01*
X128284294Y-62156065D01*
X128284293Y-62156067D01*
X128236655Y-62333855D01*
X128226457Y-62371913D01*
X128206502Y-62600000D01*
X128226457Y-62828087D01*
X128256192Y-62939057D01*
X128254502Y-63010034D01*
X128214708Y-63068830D01*
X128149444Y-63096778D01*
X128079430Y-63085005D01*
X128045390Y-63060764D01*
X127707405Y-62722779D01*
X127673379Y-62660467D01*
X127670500Y-62633684D01*
X127670500Y-60086062D01*
X128798493Y-60086062D01*
X128807789Y-60098077D01*
X128858994Y-60133931D01*
X128868489Y-60139414D01*
X129065947Y-60231490D01*
X129076239Y-60235236D01*
X129286688Y-60291625D01*
X129297481Y-60293528D01*
X129514525Y-60312517D01*
X129525475Y-60312517D01*
X129742519Y-60293528D01*
X129753312Y-60291625D01*
X129963761Y-60235236D01*
X129974053Y-60231490D01*
X130171511Y-60139414D01*
X130181006Y-60133931D01*
X130233048Y-60097491D01*
X130241424Y-60087012D01*
X130234356Y-60073566D01*
X129532812Y-59372022D01*
X129518868Y-59364408D01*
X129517035Y-59364539D01*
X129510420Y-59368790D01*
X128804923Y-60074287D01*
X128798493Y-60086062D01*
X127670500Y-60086062D01*
X127670500Y-59005475D01*
X128207483Y-59005475D01*
X128226472Y-59222519D01*
X128228375Y-59233312D01*
X128284764Y-59443761D01*
X128288510Y-59454053D01*
X128380586Y-59651511D01*
X128386069Y-59661006D01*
X128422509Y-59713048D01*
X128432988Y-59721424D01*
X128446434Y-59714356D01*
X129147978Y-59012812D01*
X129154356Y-59001132D01*
X129884408Y-59001132D01*
X129884539Y-59002965D01*
X129888790Y-59009580D01*
X130594287Y-59715077D01*
X130606062Y-59721507D01*
X130618077Y-59712211D01*
X130653931Y-59661006D01*
X130659414Y-59651511D01*
X130751490Y-59454053D01*
X130755236Y-59443761D01*
X130811625Y-59233312D01*
X130813528Y-59222519D01*
X130832517Y-59005475D01*
X130832517Y-58994525D01*
X130813528Y-58777481D01*
X130811625Y-58766688D01*
X130755236Y-58556239D01*
X130751490Y-58545947D01*
X130659414Y-58348489D01*
X130653931Y-58338994D01*
X130617491Y-58286952D01*
X130607012Y-58278576D01*
X130593566Y-58285644D01*
X129892022Y-58987188D01*
X129884408Y-59001132D01*
X129154356Y-59001132D01*
X129155592Y-58998868D01*
X129155461Y-58997035D01*
X129151210Y-58990420D01*
X128445713Y-58284923D01*
X128433938Y-58278493D01*
X128421923Y-58287789D01*
X128386069Y-58338994D01*
X128380586Y-58348489D01*
X128288510Y-58545947D01*
X128284764Y-58556239D01*
X128228375Y-58766688D01*
X128226472Y-58777481D01*
X128207483Y-58994525D01*
X128207483Y-59005475D01*
X127670500Y-59005475D01*
X127670500Y-57912988D01*
X128798576Y-57912988D01*
X128805644Y-57926434D01*
X129507188Y-58627978D01*
X129521132Y-58635592D01*
X129522965Y-58635461D01*
X129529580Y-58631210D01*
X130235077Y-57925713D01*
X130241507Y-57913938D01*
X130232211Y-57901923D01*
X130181006Y-57866069D01*
X130171511Y-57860586D01*
X129974053Y-57768510D01*
X129963761Y-57764764D01*
X129753312Y-57708375D01*
X129742519Y-57706472D01*
X129525475Y-57687483D01*
X129514525Y-57687483D01*
X129297481Y-57706472D01*
X129286688Y-57708375D01*
X129076239Y-57764764D01*
X129065947Y-57768510D01*
X128868489Y-57860586D01*
X128858994Y-57866069D01*
X128806952Y-57902509D01*
X128798576Y-57912988D01*
X127670500Y-57912988D01*
X127670500Y-56632216D01*
X127690502Y-56564095D01*
X127696619Y-56555847D01*
X127696605Y-56555837D01*
X127836013Y-56361830D01*
X127892008Y-56318182D01*
X127962711Y-56311736D01*
X128025676Y-56344539D01*
X128041549Y-56363085D01*
X128081028Y-56419467D01*
X128088084Y-56427875D01*
X128242125Y-56581916D01*
X128250533Y-56588972D01*
X128428993Y-56713931D01*
X128438489Y-56719414D01*
X128635947Y-56811490D01*
X128646239Y-56815236D01*
X128818503Y-56861394D01*
X128832599Y-56861058D01*
X128836000Y-56853116D01*
X128836000Y-54312033D01*
X128832027Y-54298502D01*
X128823478Y-54297273D01*
X128646239Y-54344764D01*
X128635947Y-54348510D01*
X128438489Y-54440586D01*
X128428993Y-54446069D01*
X128250533Y-54571028D01*
X128242125Y-54578084D01*
X128088084Y-54732125D01*
X128081028Y-54740533D01*
X128039257Y-54800188D01*
X127983799Y-54844516D01*
X127913180Y-54851825D01*
X127849820Y-54819794D01*
X127830252Y-54796357D01*
X127793931Y-54740213D01*
X127742905Y-54661339D01*
X127732516Y-54649921D01*
X127676587Y-54588456D01*
X127576846Y-54478842D01*
X127572795Y-54475643D01*
X127572791Y-54475639D01*
X127387264Y-54329119D01*
X127387259Y-54329116D01*
X127383210Y-54325918D01*
X127378694Y-54323425D01*
X127378691Y-54323423D01*
X127171722Y-54209170D01*
X127171718Y-54209168D01*
X127167198Y-54206673D01*
X127162329Y-54204949D01*
X127162325Y-54204947D01*
X126939485Y-54126035D01*
X126939481Y-54126034D01*
X126934610Y-54124309D01*
X126929517Y-54123402D01*
X126929514Y-54123401D01*
X126696783Y-54081945D01*
X126696777Y-54081944D01*
X126691694Y-54081039D01*
X126612324Y-54080069D01*
X126450142Y-54078088D01*
X126450140Y-54078088D01*
X126444972Y-54078025D01*
X126201070Y-54115347D01*
X125966540Y-54192003D01*
X125961948Y-54194393D01*
X125961949Y-54194393D01*
X125761958Y-54298502D01*
X125747679Y-54305935D01*
X125743546Y-54309038D01*
X125743543Y-54309040D01*
X125576766Y-54434260D01*
X125510281Y-54459166D01*
X125501113Y-54459500D01*
X117925270Y-54459500D01*
X117914353Y-54458578D01*
X117914331Y-54458871D01*
X117908354Y-54458432D01*
X117902437Y-54457426D01*
X117808756Y-54459470D01*
X117806007Y-54459500D01*
X117766577Y-54459500D01*
X117763601Y-54459784D01*
X117763577Y-54459785D01*
X117759073Y-54460215D01*
X117749859Y-54460755D01*
X117729519Y-54461199D01*
X117694670Y-54461959D01*
X117694668Y-54461959D01*
X117688676Y-54462090D01*
X117682816Y-54463352D01*
X117682813Y-54463352D01*
X117655505Y-54469232D01*
X117640951Y-54471486D01*
X117607155Y-54474710D01*
X117548427Y-54491939D01*
X117539484Y-54494211D01*
X117485519Y-54505829D01*
X117485516Y-54505830D01*
X117479654Y-54507092D01*
X117448421Y-54520381D01*
X117434568Y-54525341D01*
X117407747Y-54533209D01*
X117407740Y-54533212D01*
X117401989Y-54534899D01*
X117347582Y-54562920D01*
X117339229Y-54566842D01*
X117288432Y-54588456D01*
X117288430Y-54588457D01*
X117282912Y-54590805D01*
X117277940Y-54594153D01*
X117277939Y-54594153D01*
X117254750Y-54609765D01*
X117242074Y-54617261D01*
X117217238Y-54630052D01*
X117217235Y-54630054D01*
X117211907Y-54632798D01*
X117207192Y-54636501D01*
X117207193Y-54636501D01*
X117163776Y-54670605D01*
X117156314Y-54676036D01*
X117105550Y-54710213D01*
X117101379Y-54713995D01*
X117080497Y-54734877D01*
X117069236Y-54744867D01*
X117043766Y-54764874D01*
X117039834Y-54769405D01*
X117039829Y-54769410D01*
X117002491Y-54812438D01*
X116996421Y-54818953D01*
X108872779Y-62942595D01*
X108810467Y-62976621D01*
X108783684Y-62979500D01*
X104618113Y-62979500D01*
X104549992Y-62959498D01*
X104516762Y-62928360D01*
X104420078Y-62797460D01*
X104373554Y-62750199D01*
X104258854Y-62633684D01*
X104221334Y-62595570D01*
X104217794Y-62592869D01*
X104217788Y-62592863D01*
X103999667Y-62426398D01*
X103999663Y-62426395D01*
X103996126Y-62423696D01*
X103842677Y-62337761D01*
X103752837Y-62287448D01*
X103752832Y-62287445D01*
X103748947Y-62285270D01*
X103744789Y-62283662D01*
X103744784Y-62283659D01*
X103488885Y-62184659D01*
X103488879Y-62184657D01*
X103484730Y-62183052D01*
X103480398Y-62182048D01*
X103480395Y-62182047D01*
X103405141Y-62164604D01*
X103208747Y-62119082D01*
X102926503Y-62094637D01*
X102922068Y-62094881D01*
X102922064Y-62094881D01*
X102648073Y-62109960D01*
X102648066Y-62109961D01*
X102643630Y-62110205D01*
X102505743Y-62137632D01*
X102370146Y-62164604D01*
X102370141Y-62164605D01*
X102365774Y-62165474D01*
X102361571Y-62166950D01*
X102102684Y-62257864D01*
X102102681Y-62257865D01*
X102098476Y-62259342D01*
X102094523Y-62261395D01*
X102094517Y-62261398D01*
X101962151Y-62330157D01*
X101847072Y-62389936D01*
X101843457Y-62392519D01*
X101843451Y-62392523D01*
X101760492Y-62451807D01*
X101616576Y-62554651D01*
X101613349Y-62557729D01*
X101613347Y-62557731D01*
X101420787Y-62741424D01*
X101411588Y-62750199D01*
X101236199Y-62972680D01*
X101233962Y-62976532D01*
X101096141Y-63213807D01*
X101096138Y-63213813D01*
X101093907Y-63217654D01*
X101092237Y-63221777D01*
X101001284Y-63446329D01*
X100957171Y-63501958D01*
X100889986Y-63524908D01*
X100821059Y-63507890D01*
X100772274Y-63456310D01*
X100758500Y-63399027D01*
X100758500Y-55542277D01*
X101637009Y-55542277D01*
X101662625Y-55810769D01*
X101663710Y-55815203D01*
X101663711Y-55815209D01*
X101714786Y-56023933D01*
X101726731Y-56072750D01*
X101827985Y-56322733D01*
X101964265Y-56555482D01*
X102010837Y-56613717D01*
X102084686Y-56706060D01*
X102132716Y-56766119D01*
X102329809Y-56950234D01*
X102551416Y-57103968D01*
X102555499Y-57105999D01*
X102555502Y-57106001D01*
X102671013Y-57163466D01*
X102792894Y-57224101D01*
X102797228Y-57225522D01*
X102797231Y-57225523D01*
X103044853Y-57306698D01*
X103044859Y-57306699D01*
X103049186Y-57308118D01*
X103053677Y-57308898D01*
X103053678Y-57308898D01*
X103311140Y-57353601D01*
X103311148Y-57353602D01*
X103314921Y-57354257D01*
X103318758Y-57354448D01*
X103398578Y-57358422D01*
X103398586Y-57358422D01*
X103400149Y-57358500D01*
X103568512Y-57358500D01*
X103570780Y-57358335D01*
X103570792Y-57358335D01*
X103701884Y-57348823D01*
X103769004Y-57343953D01*
X103773459Y-57342969D01*
X103773462Y-57342969D01*
X104027912Y-57286791D01*
X104027916Y-57286790D01*
X104032372Y-57285806D01*
X104158480Y-57238028D01*
X104280318Y-57191868D01*
X104280321Y-57191867D01*
X104284588Y-57190250D01*
X104520368Y-57059286D01*
X104734773Y-56895657D01*
X104738374Y-56891974D01*
X104905999Y-56720502D01*
X104923312Y-56702792D01*
X105082034Y-56484730D01*
X105146695Y-56361830D01*
X105205490Y-56250079D01*
X105205493Y-56250073D01*
X105207615Y-56246039D01*
X105212746Y-56231511D01*
X105295902Y-55996033D01*
X105295902Y-55996032D01*
X105297425Y-55991720D01*
X105349581Y-55727100D01*
X105350621Y-55706217D01*
X105362764Y-55462292D01*
X105362764Y-55462286D01*
X105362991Y-55457723D01*
X105337375Y-55189231D01*
X105321848Y-55125775D01*
X105274355Y-54931688D01*
X105273269Y-54927250D01*
X105172015Y-54677267D01*
X105044139Y-54458871D01*
X105038045Y-54448463D01*
X105038044Y-54448462D01*
X105035735Y-54444518D01*
X104917928Y-54297208D01*
X104870136Y-54237447D01*
X104870135Y-54237445D01*
X104867284Y-54233881D01*
X104670191Y-54049766D01*
X104448584Y-53896032D01*
X104444501Y-53894001D01*
X104444498Y-53893999D01*
X104279606Y-53811967D01*
X104207106Y-53775899D01*
X104202772Y-53774478D01*
X104202769Y-53774477D01*
X103955147Y-53693302D01*
X103955141Y-53693301D01*
X103950814Y-53691882D01*
X103946322Y-53691102D01*
X103688860Y-53646399D01*
X103688852Y-53646398D01*
X103685079Y-53645743D01*
X103673817Y-53645182D01*
X103601422Y-53641578D01*
X103601414Y-53641578D01*
X103599851Y-53641500D01*
X103431488Y-53641500D01*
X103429220Y-53641665D01*
X103429208Y-53641665D01*
X103298116Y-53651177D01*
X103230996Y-53656047D01*
X103226541Y-53657031D01*
X103226538Y-53657031D01*
X102972088Y-53713209D01*
X102972084Y-53713210D01*
X102967628Y-53714194D01*
X102841520Y-53761972D01*
X102719682Y-53808132D01*
X102719679Y-53808133D01*
X102715412Y-53809750D01*
X102479632Y-53940714D01*
X102476000Y-53943486D01*
X102295763Y-54081039D01*
X102265227Y-54104343D01*
X102262034Y-54107609D01*
X102262032Y-54107611D01*
X102181104Y-54190396D01*
X102076688Y-54297208D01*
X101917966Y-54515270D01*
X101879461Y-54588456D01*
X101794510Y-54749921D01*
X101794507Y-54749927D01*
X101792385Y-54753961D01*
X101790865Y-54758266D01*
X101790863Y-54758270D01*
X101718757Y-54962457D01*
X101702575Y-55008280D01*
X101650419Y-55272900D01*
X101650192Y-55277453D01*
X101650192Y-55277456D01*
X101640991Y-55462292D01*
X101637009Y-55542277D01*
X100758500Y-55542277D01*
X100758500Y-52884500D01*
X100778502Y-52816379D01*
X100832158Y-52769886D01*
X100884500Y-52758500D01*
X169615500Y-52758500D01*
X169683621Y-52778502D01*
G37*
%TD.AperFunction*%
%TD*%
M02*
